<svg width="18" height="18" viewBox="0 0 18 18" fill="none" xmlns="http://www.w3.org/2000/svg">
<g clip-path="url(#clip0_516_519)">
<path d="M7.43411 4.53593C7.21923 2.0643 4.64073 0.851551 4.53161 0.802051C4.42959 0.754097 4.31527 0.738775 4.20423 0.758176C1.22748 1.25205 0.779732 2.98455 0.761732 3.05655C0.737242 3.15689 0.741137 3.26205 0.772982 3.3603C4.32348 14.3763 11.7024 16.4182 14.1279 17.0898C14.3146 17.1416 14.4687 17.1832 14.5857 17.2214C14.7192 17.265 14.8643 17.2566 14.9919 17.1978C15.0661 17.1641 16.8189 16.3383 17.2475 13.6451C17.2665 13.5275 17.2476 13.4069 17.1935 13.3008C17.1552 13.2266 16.2384 11.4817 13.6959 10.8652C13.6096 10.8431 13.5193 10.8423 13.4327 10.8629C13.346 10.8835 13.2657 10.9248 13.1986 10.9833C12.3965 11.6684 11.2884 12.3986 10.8102 12.4739C7.60511 10.9068 5.81523 7.89968 5.74773 7.3293C5.70836 7.00868 6.44298 5.88255 7.28786 4.9668C7.34096 4.90917 7.3814 4.84105 7.40659 4.76685C7.43178 4.69264 7.44115 4.61398 7.43411 4.53593Z" fill="white"/>
</g>
<defs>
<clipPath id="clip0_516_519">
<rect width="18" height="18" fill="white"/>
</clipPath>
</defs>
</svg>
