<svg width="20" height="20" viewBox="0 0 20 20" fill="none" xmlns="http://www.w3.org/2000/svg">
<path d="M13.8334 11.6666C13.6667 11.5833 12.5834 11.0833 12.4167 10.9999C12.2501 10.9166 12.0834 10.9166 11.9167 11.0833C11.7501 11.2499 11.4167 11.7499 11.2501 11.9166C11.1667 12.0833 11.0001 12.0833 10.8334 11.9999C10.2501 11.7499 9.66675 11.4166 9.16675 10.9999C8.75008 10.5833 8.33341 10.0833 8.00008 9.58325C7.91675 9.41659 8.00008 9.24992 8.08341 9.16659C8.16675 9.08325 8.25008 8.91659 8.41675 8.83325C8.50008 8.74992 8.58341 8.58325 8.58341 8.49992C8.66675 8.41659 8.66675 8.24992 8.58341 8.16659C8.50008 8.08325 8.08341 7.08325 7.91675 6.66659C7.83341 6.08325 7.66675 6.08325 7.50008 6.08325H7.08341C6.91675 6.08325 6.66675 6.24992 6.58341 6.33325C6.08341 6.83325 5.83341 7.41659 5.83341 8.08325C5.91675 8.83325 6.16675 9.58325 6.66675 10.2499C7.58341 11.5833 8.75008 12.6666 10.1667 13.3333C10.5834 13.4999 10.9167 13.6666 11.3334 13.7499C11.7501 13.9166 12.1667 13.9166 12.6667 13.8333C13.2501 13.7499 13.7501 13.3333 14.0834 12.8333C14.2501 12.4999 14.2501 12.1666 14.1667 11.8333L13.8334 11.6666ZM15.9167 4.08325C12.6667 0.833252 7.41675 0.833252 4.16675 4.08325C1.50008 6.74992 1.00008 10.8333 2.83341 14.0833L1.66675 18.3333L6.08341 17.1666C7.33341 17.8333 8.66675 18.1666 10.0001 18.1666C14.5834 18.1666 18.2501 14.4999 18.2501 9.91659C18.3334 7.74992 17.4167 5.66659 15.9167 4.08325ZM13.6667 15.7499C12.5834 16.4166 11.3334 16.8333 10.0001 16.8333C8.75008 16.8333 7.58341 16.4999 6.50008 15.9166L6.25008 15.7499L3.66675 16.4166L4.33341 13.9166L4.16675 13.6666C2.16675 10.3333 3.16675 6.16659 6.41675 4.08325C9.66675 1.99992 13.8334 3.08325 15.8334 6.24992C17.8334 9.49992 16.9167 13.7499 13.6667 15.7499Z" fill="white"/>
</svg>
