<svg width="137" height="134" viewBox="0 0 137 134" fill="none" xmlns="http://www.w3.org/2000/svg">
<path d="M51.55 33.9484C51.6187 34.0742 51.6256 34.2664 51.5708 34.525C51.5411 34.7698 51.4645 34.9585 51.341 35.0913C51.0963 35.4208 50.7852 35.6885 50.4078 35.8945C50.0303 36.1006 49.6918 36.318 49.3921 36.5469C49.0788 36.7506 48.85 36.9897 48.706 37.2643C48.5734 37.5 48.6169 37.8191 48.8366 38.2217C48.9053 38.3475 49.0953 38.6357 49.4066 39.0864C49.7041 39.5118 50.0497 40.0254 50.4434 40.627C50.8485 41.1897 51.2685 41.8095 51.7033 42.4866C52.1382 43.1637 52.5136 43.7916 52.8295 44.3704C52.9119 44.5214 52.9885 44.6918 53.0595 44.8816C53.1442 45.0967 53.1969 45.3129 53.2176 45.5302C53.2382 45.7476 53.22 45.9535 53.1628 46.1479C53.1057 46.3424 52.9639 46.5015 52.7374 46.6251C52.5361 46.7349 52.3107 46.711 52.0613 46.5532C51.8508 46.4068 51.6391 46.2284 51.4263 46.018C51.2386 45.7938 51.0704 45.5754 50.9217 45.3627C50.798 45.1362 50.7294 45.0104 50.7156 44.9852C50.7019 44.9601 50.5589 44.7279 50.2865 44.2887C50.0393 43.8358 49.7314 43.3016 49.3629 42.6863C49.0058 42.0321 48.6224 41.3596 48.2127 40.6687C47.8144 39.939 47.4516 39.3042 47.1243 38.7644C46.987 38.5128 46.8554 38.4213 46.7296 38.49C46.6541 38.5312 46.4791 38.6593 46.2047 38.8745C45.9416 39.0507 45.6717 39.2143 45.3949 39.3654C45.2691 39.4341 44.9728 39.5794 44.5062 39.8015C44.0647 40.0098 43.558 40.1884 42.986 40.3373C42.4004 40.461 41.8376 40.5069 41.2976 40.475C40.7691 40.4042 40.3675 40.1172 40.0929 39.6139C39.9006 39.2616 39.833 38.8087 39.89 38.255C39.9471 37.7013 40.0727 37.0939 40.267 36.4326C40.4613 35.7714 40.6876 35.109 40.946 34.4454C41.1906 33.7567 41.4238 33.1069 41.6455 32.496C41.8673 31.8851 42.0342 31.3531 42.1462 30.9001C42.2581 30.4471 42.2592 30.1199 42.1493 29.9186L41.4283 28.5976C41.3596 28.4718 41.3619 28.3562 41.4351 28.251C41.5334 28.132 41.6203 28.0519 41.6958 28.0107C41.9223 27.8871 42.1534 27.8916 42.389 28.0242C42.6362 28.1179 42.873 28.2826 43.0996 28.5182C43.3124 28.7286 43.5 28.9528 43.6625 29.1907C43.825 29.4286 43.9406 29.6104 44.0093 29.7362C44.3801 30.4156 44.6891 30.9818 44.9363 31.4347C45.195 31.8487 45.4399 32.2376 45.671 32.6013C45.8885 32.9399 46.1071 33.3104 46.3268 33.713C46.558 34.0767 46.8384 34.5605 47.168 35.1644C47.3053 35.4161 47.4746 35.487 47.6759 35.3771C47.7514 35.3359 47.8887 35.2283 48.0877 35.0544C48.2981 34.8416 48.528 34.6344 48.7773 34.433C49.038 34.1928 49.2805 33.9788 49.5047 33.7911C49.7151 33.5783 49.8706 33.4444 49.9713 33.3895C50.2481 33.2384 50.5295 33.2154 50.8155 33.3206C51.1266 33.412 51.3715 33.6213 51.55 33.9484ZM44.7587 34.5199C44.539 34.1173 44.3066 33.7216 44.0617 33.3327C43.842 32.9301 43.6269 32.6556 43.4163 32.5093C43.1192 33.5206 42.8632 34.4278 42.6484 35.2309C42.4678 35.9173 42.3124 36.5899 42.1822 37.2489C42.0634 37.8689 42.0383 38.2418 42.107 38.3677C42.5028 38.3149 42.9214 38.1844 43.3629 37.9761C43.8044 37.7678 44.1887 37.5744 44.5158 37.3958C44.7171 37.2859 44.9436 37.1623 45.1952 37.025C45.4583 36.8488 45.6767 36.6805 45.8506 36.5204L44.7587 34.5199ZM63.5255 24.5219C63.5667 24.5974 63.5462 24.7392 63.4639 24.9474C63.393 25.1168 63.2844 25.3067 63.138 25.5172C62.9916 25.7277 62.8201 25.952 62.6234 26.19C62.4382 26.3891 62.2517 26.5561 62.0642 26.6912C61.6913 27.0253 61.2853 27.3285 60.8461 27.6009C60.4069 27.8733 60.0066 28.1571 59.6452 28.4523C60.3684 29.2986 60.9841 30.1873 61.4923 31.1183C62.0141 32.0745 62.3003 32.898 62.3509 33.5889C62.4265 34.2661 62.2882 34.7009 61.936 34.8931C61.785 34.9755 61.5985 34.963 61.3766 34.8555C61.1661 34.7092 60.9784 34.485 60.8136 34.183C60.7724 34.1076 60.7151 33.9429 60.6419 33.6889C60.58 33.3961 60.4873 33.1364 60.3637 32.91C60.3362 32.8597 60.2344 32.703 60.0581 32.4399C59.8682 32.1517 59.6519 31.8452 59.4093 31.5204C59.1781 31.1567 58.9412 30.8124 58.6986 30.4876C58.4674 30.1239 58.2912 29.8608 58.1699 29.6984C57.9183 29.8358 57.6175 30.0326 57.2675 30.2889C56.9038 30.5201 56.6842 30.6563 56.6087 30.6975C56.2564 30.8898 55.9144 31.0111 55.5827 31.0615C55.2762 31.0982 55.013 30.9153 54.7933 30.5127C54.6697 30.2862 54.6879 30.0803 54.848 29.8949C54.9647 29.9292 55.0734 29.9189 55.174 29.864C55.1992 29.8502 55.3055 29.7758 55.4931 29.6408C55.6921 29.4669 55.8911 29.2929 56.0901 29.119C56.3143 28.9314 56.5007 28.7643 56.6493 28.6178C56.8094 28.4325 56.8758 28.3146 56.8483 28.2643C56.8208 28.214 56.6332 27.9898 56.2853 27.5918C55.9626 27.1801 55.5941 26.7444 55.1799 26.2846C54.7771 25.786 54.3812 25.2999 53.9921 24.8264C53.6282 24.3392 53.3914 23.995 53.2815 23.7937C53.2677 23.7685 53.2265 23.693 53.1579 23.5672C53.1144 23.4276 53.0709 23.2881 53.0274 23.1486C53.009 22.9953 53.0101 22.8477 53.0307 22.7059C53.0512 22.564 53.137 22.4519 53.288 22.3695C53.7661 22.1085 54.1252 22.1084 54.3655 22.3692C55.0338 23.1148 55.6105 23.8125 56.0957 24.4621C56.5923 25.0728 57.0157 25.6092 57.3659 26.0713C57.7275 26.4944 58.0216 26.8238 58.2481 27.0594C58.4861 27.2561 58.7058 27.2995 58.9071 27.1896C59.4698 26.7845 59.9947 26.4 60.4819 26.0361C60.8822 25.7523 61.2825 25.4685 61.6828 25.1847C62.0831 24.9009 62.3462 24.7247 62.472 24.656C62.5223 24.6285 62.687 24.5713 62.9661 24.4843C63.2704 24.3835 63.4569 24.3961 63.5255 24.5219ZM32.2558 79.7506C33.1485 81.3861 33.7301 82.9303 34.0004 84.383C34.2959 85.822 34.453 87.1569 34.4717 88.3878C34.5017 89.5797 34.4837 90.6836 34.4176 91.6994C34.363 92.6764 34.4456 93.5457 34.6654 94.3075C34.7868 94.8291 34.6336 95.2066 34.2059 95.4401C34.1555 95.4676 34.1178 95.4882 34.0926 95.5019C34.0537 95.4905 34.0091 95.4985 33.9588 95.526C34.3684 95.8576 34.9004 96.2041 35.5549 96.5654C36.1956 96.9015 36.8431 97.2502 37.4975 97.6115C38.152 97.9729 38.7492 98.349 39.2892 98.7401C39.8544 99.1175 40.24 99.4949 40.446 99.8723C40.5559 100.074 40.5205 100.338 40.3399 100.665C40.1981 101.004 40.0266 101.228 39.8253 101.338C39.7246 101.393 39.6148 101.371 39.4958 101.273C38.7498 100.504 37.7555 99.7895 36.513 99.1287C35.2705 98.4678 33.9342 97.6949 32.5041 96.8099C31.0991 95.9111 29.6803 94.8076 28.2478 93.4993C26.8152 92.1911 25.5428 90.5178 24.4303 88.4797C23.9634 87.6241 23.6097 86.8864 23.3693 86.2665C23.1403 85.6076 23.2397 85.1615 23.6675 84.928C23.9191 84.7907 24.1365 84.77 24.3195 84.866C24.5026 84.9621 24.6422 85.0982 24.7383 85.2743C25.9881 87.5641 27.3007 89.4604 28.6761 90.9631C30.0515 92.4659 31.2643 93.5511 32.3146 94.2189L32.4207 92.8874C32.5255 91.5238 32.611 90.3341 32.6771 89.3182C32.7294 88.2773 32.7074 87.3095 32.6111 86.415C32.501 85.4953 32.296 84.6111 31.9961 83.7624C31.7213 82.8999 31.3024 81.9529 30.7393 80.9212C30.5882 80.6444 30.3857 80.3631 30.1317 80.0772C29.9028 79.7775 29.6442 79.5431 29.3559 79.3739C29.079 79.1657 28.7918 79.0285 28.4944 78.9623C28.197 78.896 27.8973 78.9453 27.5953 79.1101C27.1927 79.3298 26.638 79.7795 25.9313 80.4592C25.2497 81.1252 24.5841 81.8803 23.9346 82.7247C23.2851 83.5691 22.7385 84.4226 22.2949 85.2853C21.8375 86.1227 21.6639 86.8217 21.7738 87.3822C21.7761 87.4463 21.7727 87.5298 21.7636 87.6327C21.7545 87.7357 21.7247 87.8009 21.6744 87.8284C21.4983 87.9245 21.234 87.8891 20.8817 87.7222C20.5293 87.5553 20.2982 87.3712 20.1883 87.1699C19.9411 86.7169 19.902 86.1667 20.0712 85.5192C20.2403 84.8717 20.5307 84.207 20.9423 83.5251C21.3791 82.8295 21.8994 82.1373 22.5032 81.4485C23.0933 80.7345 23.6925 80.0972 24.3009 79.5365C24.8956 78.9507 25.4423 78.4563 25.9409 78.0535C26.451 77.6118 26.8318 77.3223 27.0835 77.185C27.4861 76.9652 27.9253 76.8725 28.4012 76.9067C28.9022 76.9271 29.3816 77.0574 29.8392 77.2975C30.2969 77.5376 30.7385 77.8681 31.1641 78.2889C31.5898 78.7098 31.9537 79.197 32.2558 79.7506ZM47.7945 79.5485C47.8907 79.7246 47.8976 79.9168 47.8153 80.125C47.7192 80.3081 47.5911 80.4923 47.431 80.6776C47.271 80.863 47.104 81.0358 46.9301 81.196C46.7426 81.331 46.5859 81.4328 46.4601 81.5015C46.0826 81.7075 45.8173 81.8197 45.664 81.838C45.5107 81.8564 45.3963 81.8862 45.3208 81.9274C44.6918 82.2707 44.216 82.5957 43.8935 82.9024C43.571 83.209 43.3583 83.5374 43.2554 83.8875C43.1777 84.2238 43.1973 84.5887 43.3141 84.9822C43.4423 85.3368 43.6369 85.7531 43.8978 86.2312C44.3373 87.0364 44.7127 87.6643 45.0239 88.1149C45.3604 88.5518 45.6362 88.9075 45.8513 89.182C46.0916 89.4427 46.285 89.6475 46.4314 89.7961C46.5893 89.9059 46.7095 90.0363 46.7919 90.1872C46.9017 90.3886 46.9052 90.6642 46.8024 91.0143C46.7247 91.3506 46.5978 91.5669 46.4216 91.663C46.1197 91.8278 45.6987 91.7147 45.1586 91.3236C44.63 90.8936 44.0785 90.3619 43.5041 89.7283C42.9411 89.0558 42.4101 88.3822 41.9112 87.7074C41.4123 87.0326 41.0598 86.5065 40.8538 86.1291C40.6203 85.7013 40.4383 85.2781 40.3078 84.8594C40.1636 84.4156 40.0788 84.021 40.0535 83.6756C40.0145 83.3049 40.0225 82.9903 40.0773 82.7318C40.1321 82.4733 40.2351 82.3028 40.386 82.2204C40.5118 82.1517 40.64 82.1471 40.7704 82.2066C40.8871 82.2408 41.0049 82.3072 41.1239 82.4055C41.2292 82.4787 41.3344 82.5519 41.4397 82.6251C41.5564 82.6593 41.6651 82.649 41.7657 82.5941C41.9922 82.4705 42.2952 82.1581 42.6749 81.657C43.0545 81.1558 43.6092 80.7061 44.3389 80.3078C45.0183 79.937 45.5353 79.6875 45.8899 79.5593C46.2559 79.3922 46.6368 79.2823 47.0326 79.2295C47.1218 79.2135 47.2442 79.2283 47.3998 79.274C47.5668 79.2809 47.6984 79.3723 47.7945 79.5485ZM59.419 77.5637C59.7212 78.1173 59.9341 78.6869 60.0578 79.2726C60.1815 79.8582 60.2205 80.4084 60.1749 80.9232C60.1293 81.438 59.9921 81.9048 59.7635 82.3235C59.5462 82.7033 59.2363 83.0031 58.8337 83.2229C58.1291 83.6074 57.4657 83.7083 56.8433 83.5254C56.221 83.3425 55.6524 83.0487 55.1375 82.6439C54.6478 82.2254 54.221 81.7725 53.8571 81.2853C53.5046 80.7592 53.2529 80.3577 53.1018 80.0809C52.8546 79.628 52.6428 79.0904 52.4665 78.4681C52.3016 77.807 52.2019 77.1756 52.1674 76.5739C52.1581 75.9585 52.2151 75.4048 52.3385 74.9129C52.462 74.4209 52.6872 74.0857 53.0143 73.9072C53.0898 73.866 53.2168 73.8293 53.3952 73.7973C53.5988 73.7514 53.8162 73.7308 54.0473 73.7353C54.2783 73.7398 54.498 73.7832 54.7062 73.8655C54.9396 73.9341 55.1364 74.0553 55.2966 74.2291C55.5871 74.1032 55.9188 74.0528 56.2917 74.0779C56.6647 74.1029 56.8912 74.1589 56.9713 74.2459C57.5296 74.7902 58.0125 75.3758 58.4199 76.0025C58.8525 76.6156 59.1855 77.136 59.419 77.5637ZM57.3497 77.8114C57.1437 77.4339 56.8931 77.0645 56.5979 76.7031C56.2889 76.3165 55.9044 75.9712 55.4445 75.667C55.4079 75.7197 55.3519 75.7666 55.2764 75.8078C55.1757 75.8627 55.0808 75.8982 54.9916 75.9142C54.9275 75.9165 54.8703 75.9314 54.82 75.9589C54.518 76.1237 54.3271 76.3422 54.2471 76.6145C54.1533 76.8616 54.1317 77.151 54.1821 77.4828C54.244 77.7756 54.3447 78.0799 54.4843 78.3955C54.624 78.7112 54.7693 79.0075 54.9204 79.2843C55.0715 79.561 55.2557 79.8687 55.4732 80.2073C55.6769 80.5206 55.8989 80.8077 56.1392 81.0684C56.4046 81.3155 56.6746 81.511 56.9492 81.6551C57.2101 81.774 57.4663 81.7647 57.7179 81.6274C57.9696 81.4901 58.1148 81.2475 58.1536 80.8997C58.1786 80.5268 58.1454 80.1368 58.0537 79.7295C57.9621 79.3223 57.8396 78.9483 57.6862 78.6074C57.5443 78.2277 57.4321 77.9623 57.3497 77.8114ZM60.1467 65.4094C60.1742 65.4597 60.1537 65.6016 60.0851 65.835C60.0417 66.0546 59.9674 66.3074 59.8622 66.5935C59.7685 66.8406 59.6553 67.082 59.5227 67.3177C59.4152 67.5396 59.3111 67.678 59.2105 67.733C58.8079 67.9527 58.3698 68.0775 57.8962 68.1074C57.4478 68.1235 57.1412 67.9806 56.9764 67.6787C56.9077 67.5529 56.8379 67.395 56.7669 67.2051C56.7211 67.0015 56.6947 66.8036 56.6878 66.6115C56.6923 66.3804 56.7426 66.1733 56.8387 65.9903C56.921 65.7821 57.0754 65.6162 57.3018 65.4925C57.4528 65.4101 57.6747 65.338 57.9675 65.2762C58.2466 65.1892 58.5337 65.1468 58.8289 65.149C59.1354 65.1123 59.418 65.1213 59.6765 65.1762C59.9213 65.2059 60.0781 65.2836 60.1467 65.4094ZM74.308 84.6236C74.5002 84.9758 74.5713 85.3453 74.521 85.732C74.4845 86.1438 74.3828 86.5259 74.2159 86.8783C74.049 87.2306 73.842 87.5395 73.595 87.805C73.3617 88.0956 73.1444 88.2959 72.9431 88.4057C72.3392 88.7353 71.5797 89.0192 70.6647 89.2574C69.7885 89.507 68.894 89.6034 67.9811 89.5464C67.0568 89.5284 66.1771 89.3227 65.3419 88.9294C64.5205 88.5613 63.8557 87.9117 63.3475 86.9807C63.2926 86.88 63.2628 86.7657 63.2582 86.6375C63.2673 86.5346 63.3348 86.4488 63.4606 86.3801C63.6367 86.284 63.9662 86.3491 64.449 86.5754C64.9204 86.8407 65.513 87.0888 66.2269 87.3197C66.9407 87.5505 67.7529 87.6624 68.6635 87.6553C69.5878 87.6734 70.6035 87.3803 71.7107 86.776C72.063 86.5837 72.2814 86.4155 72.366 86.2713C72.4758 86.1134 72.4139 85.8206 72.1805 85.3928C71.9607 84.9902 71.6575 84.5842 71.2707 84.1748C70.9091 83.7516 70.5224 83.3422 70.1105 82.9465C69.7123 82.576 69.321 82.2181 68.9365 81.8727C68.5772 81.5136 68.2774 81.2037 68.0371 80.9429C67.9708 80.8812 67.711 80.6147 67.2579 80.1435C66.8162 79.6335 66.3207 79.0548 65.7715 78.4075C65.2085 77.735 64.6718 77.0808 64.1614 76.4449C63.6511 75.809 63.3066 75.3275 63.1281 75.0004C63.032 74.8243 62.9266 74.5715 62.8122 74.2421C62.6977 73.9127 62.7788 73.6724 63.0556 73.5214C63.1814 73.4527 63.4091 73.5407 63.7386 73.7854C64.0544 74.005 64.4183 74.3126 64.8302 74.7083C65.2535 75.0651 65.6792 75.4859 66.1071 75.9708C66.5603 76.442 66.9745 76.9017 67.3498 77.3501C67.7366 77.7595 68.0638 78.1197 68.3316 78.4308C68.5993 78.7419 68.7664 78.9283 68.8328 78.99C68.993 79.1639 69.3179 79.4601 69.8076 79.8786C70.2973 80.2972 70.8283 80.7912 71.4004 81.3607C71.9839 81.8913 72.5492 82.4483 73.0961 83.0315C73.6431 83.6148 74.047 84.1455 74.308 84.6236ZM81.8816 70.7412C81.9343 70.7778 81.988 70.8464 82.043 70.9471C82.1254 71.0981 82.1357 71.3863 82.0741 71.8119C82.0535 71.9537 81.9792 72.2066 81.8512 72.5704C81.7232 72.9342 81.5071 73.346 81.203 73.806C80.8988 74.2659 80.4802 74.7556 79.9473 75.2751C79.4396 75.7809 78.7705 76.2604 77.9401 76.7136C77.3614 77.0294 76.7265 77.2126 76.0356 77.2632C75.331 77.2885 74.6274 77.1663 73.925 76.8965C73.2088 76.6016 72.5063 76.1522 71.8175 75.5484C71.115 74.9194 70.4822 74.0891 69.9191 73.0575C69.3835 72.0761 69.008 71.089 68.7927 70.0961C68.5773 69.1033 68.4799 68.1767 68.5002 67.3165C68.5457 66.4425 68.7045 65.6863 68.9766 65.0479C69.2487 64.4096 69.6112 63.9668 70.0641 63.7196C70.4667 63.4998 70.9174 63.3681 71.4162 63.3245C71.9263 63.242 72.4136 63.2373 72.8781 63.3104C73.3677 63.3698 73.8024 63.5081 74.1823 63.7253C74.5484 63.9174 74.8207 64.177 74.9992 64.5041C75.2052 64.8815 75.242 65.3677 75.1094 65.9626C75.0021 66.5437 74.8055 67.1409 74.5197 67.7541C74.2201 68.3422 73.8931 68.8799 73.5386 69.3673C73.1704 69.8296 72.8479 70.1362 72.5711 70.2873C72.4201 70.3697 72.2474 70.3823 72.0529 70.3252C71.8699 70.2291 71.7234 70.0805 71.6135 69.8792C71.4212 69.5269 71.4212 69.1677 71.6132 68.8016C71.8305 68.4218 72.0866 68.0533 72.3817 67.6964C72.663 67.3142 72.8928 66.9275 73.0711 66.5362C73.2746 66.1312 73.2665 65.7274 73.0468 65.3248C73.0193 65.2745 72.8877 65.183 72.6521 65.0504C72.4164 64.9178 72.0217 65.0025 71.4682 65.3047C71.2165 65.442 71.0096 65.7509 70.8473 66.2314C70.6712 66.6867 70.5696 67.2484 70.5423 67.9165C70.5013 68.5594 70.5655 69.2755 70.735 70.0647C70.8908 70.8288 71.1816 71.6009 71.6073 72.3809C71.9644 73.0352 72.4004 73.5647 72.9153 73.9695C73.4553 74.3606 74.017 74.6418 74.6005 74.8133C75.1702 74.9595 75.7616 74.996 76.3747 74.9226C76.9879 74.8492 77.5586 74.6683 78.0871 74.3799C78.4645 74.1739 78.8259 73.8787 79.1713 73.4942C79.528 73.0709 79.8471 72.6681 80.1284 72.286C80.4211 71.865 80.6647 71.5034 80.8591 71.2014C81.0649 70.8604 81.2055 70.6693 81.281 70.6281C81.3565 70.5869 81.4526 70.5835 81.5693 70.6178C81.7111 70.6383 81.8153 70.6795 81.8816 70.7412ZM93.8316 60.4468C93.9689 60.6985 94.0754 60.9833 94.151 61.3012C94.2128 61.5941 94.2541 61.8492 94.2747 62.0665C94.2656 62.1695 94.1708 62.5641 93.9902 63.2505C93.8211 63.898 93.5525 64.6325 93.1843 65.454C92.8414 66.2617 92.3897 67.0797 91.8294 67.908C91.2806 68.6975 90.6539 69.2845 89.9493 69.669C89.5215 69.9025 89.04 70.0674 88.5047 70.1636C87.9945 70.2461 87.4614 70.2268 86.9054 70.1057C86.3357 69.9594 85.7877 69.7033 85.2614 69.3374C84.7603 68.9578 84.3106 68.4031 83.9123 67.6734C83.253 66.4656 82.8569 65.2611 82.7239 64.06C82.5909 62.8589 82.5677 61.8592 82.6545 61.0607C82.6795 60.6878 82.7549 60.2874 82.8806 59.8595C83.0178 59.3927 83.163 58.9706 83.3161 58.5931C83.4556 58.1904 83.5973 57.8517 83.7414 57.5771C83.9106 57.2888 84.0456 57.1172 84.1462 57.0623C84.3727 56.9387 84.6083 56.8917 84.8531 56.9214C85.1231 56.9373 85.2924 57.0082 85.3611 57.134C85.471 57.3353 85.5042 57.5458 85.4608 57.7654C85.4288 57.9462 85.3602 58.1796 85.2551 58.4656C85.1362 58.7264 85.0139 59.0708 84.8881 59.4986C84.7487 59.9013 84.6447 60.399 84.5762 60.9915C84.4256 62.1515 84.4396 63.2542 84.6183 64.2997C84.8085 65.3064 85.0821 66.1368 85.4392 66.791C85.7963 67.4452 86.3237 67.8432 87.0215 67.9848C87.7308 68.0876 88.3496 67.9948 88.8781 67.7064C89.8342 67.1845 90.5605 66.5105 91.0567 65.6845C91.5781 64.8447 91.9588 64.0164 92.1988 63.1995C92.4388 62.3827 92.6056 61.6712 92.6993 61.0648C92.7929 60.4585 92.9152 60.1142 93.0662 60.0318C93.343 59.8807 93.5981 60.0191 93.8316 60.4468ZM101.297 43.1453C101.176 43.7013 100.917 44.3328 100.519 45.0398C100.107 45.7217 99.6817 46.3785 99.2427 47.01C98.8036 47.6416 98.4193 48.1942 98.09 48.6679C97.747 49.1164 97.596 49.3784 97.6372 49.4539C97.6784 49.5294 97.8524 49.7284 98.159 50.0509C98.4657 50.3734 98.8261 50.7645 99.2404 51.2242C99.666 51.6451 100.105 52.0911 100.559 52.5623C101.012 53.0335 101.405 53.4555 101.739 53.8283C101.927 54.0525 102.168 54.3452 102.464 54.7066C102.759 55.068 103.042 55.4363 103.312 55.8114C103.607 56.1728 103.869 56.5034 104.098 56.803C104.313 57.0775 104.427 57.2273 104.441 57.2525C104.647 57.6299 104.797 58.0543 104.891 58.5255C104.985 58.9968 104.894 59.308 104.617 59.4591C104.466 59.5415 104.293 59.5541 104.099 59.497C103.904 59.4398 103.715 59.3632 103.532 59.2672C103.335 59.146 103.171 59.0236 103.038 58.9001C102.905 58.7766 102.818 58.6771 102.777 58.6016C102.75 58.5513 102.708 58.4758 102.653 58.3751C102.624 58.2608 102.574 58.1407 102.506 58.0149C102.245 57.5368 101.792 56.886 101.146 56.0625C100.945 55.8132 100.611 55.4404 100.144 54.944C99.6771 54.4477 99.2033 53.9388 98.7227 53.4173C98.1621 52.8089 97.5419 52.1513 96.8622 51.4445C96.5693 51.1472 96.4102 51.0054 96.3851 51.0191C96.2089 51.1152 95.9688 51.3933 95.6646 51.8532C95.3719 52.2743 95.0506 52.7926 94.7007 53.4081C94.3371 53.9984 93.9689 54.6403 93.5962 55.3336C93.2097 56.0018 92.8541 56.6367 92.5294 57.2385C92.191 57.8151 91.9074 58.3128 91.6787 58.7316C91.4112 59.1389 91.2396 59.3631 91.1642 59.4043C90.837 59.5829 90.511 59.6138 90.1861 59.4973C89.8612 59.3807 89.6232 59.184 89.4722 58.9072C89.3898 58.7562 89.4869 58.4256 89.7636 57.9153C90.0014 57.3936 90.3387 56.785 90.7755 56.0893C91.1871 55.4075 91.6548 54.6787 92.1785 53.9029C92.677 53.1409 93.1458 52.4442 93.5849 51.8126C94.0492 51.1673 94.4277 50.6341 94.7204 50.2131C95.0383 49.7783 95.1973 49.5609 95.1973 49.5609C94.3391 48.527 93.5872 47.5984 92.9419 46.7749C92.3903 46.0636 91.8731 45.4151 91.3902 44.8295C90.9324 44.2302 90.6898 43.9054 90.6624 43.8551C90.4838 43.528 90.4163 43.2546 90.4597 43.035C90.5145 42.7764 90.63 42.5991 90.8061 42.5029C91.0829 42.3519 91.3621 42.4445 91.6436 42.7807C92.662 43.9884 93.5728 45.0589 94.3761 45.9921C95.2046 46.9116 95.9106 47.6367 96.4941 48.1673C96.6931 47.9933 97.0076 47.6421 97.4376 47.1135C97.8538 46.5597 98.2883 45.9796 98.7412 45.3732C99.194 44.7668 99.6045 44.2325 99.9727 43.7702C100.352 43.2691 100.58 42.9979 100.655 42.9567C100.806 42.8743 100.922 42.8766 101.002 42.9635C101.107 43.0367 101.206 43.0973 101.297 43.1453ZM118.433 49.4688C118.666 49.8966 118.721 50.3564 118.598 50.8484C118.486 51.3014 118.265 51.7647 117.936 52.2384C117.618 52.6732 117.229 53.0977 116.769 53.5119C116.31 53.9261 115.861 54.3015 115.424 54.6379C114.974 54.9492 114.567 55.2204 114.203 55.4516C113.851 55.6438 113.624 55.7674 113.524 55.8224C112.97 56.1245 112.494 56.2699 112.096 56.2586C111.698 56.2473 111.375 56.0151 111.128 55.5622C111.046 55.4112 110.99 55.2785 110.96 55.1642C110.916 55.0246 110.983 54.9068 111.159 54.8106C111.234 54.7694 111.374 54.7259 111.577 54.6801C111.767 54.6091 111.913 54.5462 112.013 54.4912C112.114 54.4363 112.422 54.2521 112.936 53.9385C113.462 53.586 114 53.1946 114.549 52.7644C115.123 52.3204 115.601 51.8798 115.983 51.4428C116.376 50.9668 116.491 50.5778 116.326 50.2759C116.298 50.2255 115.952 50.2188 115.286 50.2556C114.632 50.2534 113.617 50.2194 112.242 50.1534C111.162 50.0897 110.321 49.8954 109.719 49.5707C109.104 49.2208 108.556 48.6055 108.075 47.7248C107.773 47.1713 107.639 46.6565 107.673 46.1807C107.733 45.691 107.909 45.2357 108.201 44.8147C108.519 44.3799 108.922 43.9806 109.409 43.6167C109.908 43.2139 110.459 42.8477 111.063 42.518C111.113 42.4906 111.278 42.4333 111.557 42.3463C111.861 42.2456 112.199 42.1757 112.569 42.1367C112.926 42.0726 113.266 42.0667 113.589 42.1193C113.923 42.1329 114.145 42.2404 114.254 42.4417C114.282 42.492 114.273 42.595 114.227 42.7506C114.206 42.8924 114.171 43.1567 114.121 43.5433C114.032 43.5594 113.873 43.5972 113.644 43.6567C113.44 43.7025 113.199 43.7689 112.92 43.8559C112.652 43.9041 112.386 43.9842 112.12 44.0964C111.841 44.1834 111.626 44.2681 111.475 44.3505C110.821 44.7076 110.361 45.1218 110.096 45.5932C109.817 46.0394 109.863 46.6022 110.234 47.2816C110.412 47.6087 110.703 47.842 111.106 47.9814C111.533 48.1071 112.017 48.1859 112.557 48.2178C113.083 48.2245 113.642 48.2301 114.232 48.2345C114.834 48.2 115.411 48.2113 115.965 48.2684C116.519 48.3254 117.011 48.4488 117.441 48.6386C117.882 48.7895 118.213 49.0662 118.433 49.4688ZM69.7967 107.643C69.8829 107.801 69.9497 107.979 69.9972 108.179C70.036 108.363 70.0619 108.523 70.0749 108.66C70.0692 108.724 70.0096 108.972 69.8963 109.403C69.7901 109.81 69.6214 110.271 69.3902 110.787C69.1749 111.294 68.8913 111.807 68.5395 112.327C68.1949 112.823 67.8013 113.192 67.3589 113.433C67.0903 113.58 66.788 113.683 66.4518 113.744C66.1315 113.796 65.7968 113.783 65.4477 113.707C65.09 113.616 64.7459 113.455 64.4154 113.225C64.1007 112.987 63.8183 112.638 63.5683 112.18C63.1543 111.422 62.9056 110.665 62.8221 109.911C62.7385 109.157 62.724 108.529 62.7785 108.028C62.7942 107.794 62.8415 107.542 62.9205 107.274C63.0066 106.981 63.0978 106.716 63.1939 106.479C63.2815 106.226 63.3705 106.013 63.461 105.841C63.5672 105.66 63.6519 105.552 63.7151 105.517C63.8573 105.44 64.0053 105.41 64.159 105.429C64.3285 105.439 64.4349 105.483 64.478 105.562C64.547 105.689 64.5678 105.821 64.5406 105.959C64.5205 106.072 64.4774 106.219 64.4114 106.398C64.3367 106.562 64.2599 106.779 64.181 107.047C64.0934 107.3 64.0282 107.612 63.9852 107.985C63.8905 108.713 63.8994 109.405 64.0116 110.062C64.131 110.694 64.3028 111.215 64.527 111.626C64.7512 112.037 65.0824 112.287 65.5206 112.376C65.9659 112.44 66.3545 112.382 66.6863 112.201C67.2867 111.873 67.7427 111.45 68.0543 110.931C68.3817 110.404 68.6207 109.884 68.7714 109.371C68.9221 108.858 69.0269 108.411 69.0857 108.031C69.1445 107.65 69.2213 107.434 69.3161 107.382C69.4899 107.287 69.6501 107.374 69.7967 107.643ZM75.499 103.484C75.6887 103.832 75.8224 104.19 75.9001 104.557C75.9777 104.925 76.0022 105.271 75.9736 105.594C75.945 105.917 75.8588 106.21 75.7153 106.473C75.5788 106.712 75.3842 106.9 75.1314 107.038C74.6891 107.279 74.2725 107.343 73.8817 107.228C73.4909 107.113 73.1339 106.928 72.8106 106.674C72.5031 106.411 72.2351 106.127 72.0066 105.821C71.7853 105.491 71.6272 105.239 71.5323 105.065C71.3771 104.781 71.2441 104.443 71.1334 104.052C71.0299 103.637 70.9673 103.241 70.9456 102.863C70.9398 102.476 70.9756 102.129 71.0531 101.82C71.1306 101.511 71.272 101.301 71.4774 101.188C71.5248 101.163 71.6046 101.14 71.7166 101.119C71.8444 101.091 71.9809 101.078 72.126 101.08C72.2711 101.083 72.409 101.111 72.5398 101.162C72.6863 101.205 72.8099 101.281 72.9105 101.391C73.0929 101.312 73.3012 101.28 73.5353 101.296C73.7695 101.311 73.9117 101.346 73.962 101.401C74.3126 101.743 74.6158 102.111 74.8717 102.504C75.1433 102.889 75.3524 103.216 75.499 103.484ZM74.1996 103.64C74.0703 103.403 73.9129 103.171 73.7276 102.944C73.5336 102.701 73.2922 102.484 73.0034 102.293C72.9804 102.326 72.9452 102.356 72.8978 102.382C72.8346 102.416 72.775 102.439 72.719 102.449C72.6787 102.45 72.6428 102.459 72.6112 102.477C72.4216 102.58 72.3017 102.717 72.2515 102.888C72.1926 103.044 72.179 103.225 72.2107 103.434C72.2495 103.617 72.3128 103.808 72.4005 104.007C72.4881 104.205 72.5794 104.391 72.6743 104.565C72.7691 104.738 72.8848 104.932 73.0214 105.144C73.1493 105.341 73.2887 105.521 73.4395 105.685C73.6062 105.84 73.7758 105.963 73.9482 106.053C74.112 106.128 74.2729 106.122 74.4309 106.036C74.5889 105.95 74.68 105.797 74.7044 105.579C74.7201 105.345 74.6992 105.1 74.6417 104.844C74.5842 104.589 74.5073 104.354 74.411 104.14C74.3218 103.901 74.2514 103.735 74.1996 103.64ZM89.9999 99.3224C90.0689 99.4488 90.0898 99.581 90.0625 99.7189C90.0352 99.8568 89.9836 99.9875 89.9075 100.111C89.8227 100.219 89.7258 100.323 89.6166 100.424C89.5233 100.516 89.4371 100.583 89.3581 100.626C89.0263 100.807 88.6471 100.789 88.2204 100.571C87.785 100.337 87.3719 100.049 86.9811 99.7089C86.5816 99.3528 86.2389 99.0067 85.953 98.6706C85.6828 98.3259 85.5391 98.1377 85.5218 98.1061C85.5219 98.3317 85.5787 98.68 85.6923 99.1512C85.8218 99.6137 85.9318 100.097 86.0224 100.601C86.1044 101.09 86.1254 101.56 86.0853 102.013C86.0524 102.441 85.87 102.745 85.5382 102.927C85.3802 103.013 85.1784 103 84.9327 102.888C84.687 102.776 84.419 102.604 84.1288 102.373C83.8386 102.142 83.5268 101.871 83.1934 101.561C82.8758 101.242 82.5547 100.936 82.2299 100.641C81.921 100.338 81.625 100.059 81.3419 99.8031C81.0502 99.5317 80.7973 99.3314 80.5832 99.2021C80.6178 99.4909 80.7077 99.8622 80.8529 100.316C81.0139 100.761 81.1958 101.226 81.3984 101.71C81.5925 102.178 81.7945 102.642 82.0043 103.102C82.2142 103.562 82.4097 103.957 82.5908 104.289C82.7115 104.51 82.7345 104.703 82.6599 104.867C82.601 105.022 82.5084 105.134 82.382 105.203C82.2082 105.298 81.974 105.282 81.6795 105.156C81.3764 105.013 81.0387 104.808 80.6666 104.54C80.2944 104.271 79.9043 103.951 79.4962 103.579C79.104 103.198 78.7196 102.813 78.3431 102.424C77.9824 102.026 77.6584 101.639 77.3709 101.263C77.0749 100.871 76.8493 100.533 76.6941 100.248C76.5819 100.043 76.4864 99.849 76.4073 99.6665C76.3455 99.5157 76.2801 99.3771 76.2111 99.2507C76.1579 99.1157 76.127 99.0403 76.1184 99.0245C76.0925 98.9771 76.0595 98.9541 76.0192 98.9555C75.9948 98.9484 75.9654 98.9132 75.9309 98.85C75.905 98.8026 75.9215 98.7013 75.9803 98.5461C76.0464 98.3665 76.1426 98.2423 76.269 98.1733C76.4902 98.0525 76.6583 98.0223 76.7732 98.0826C76.9039 98.1343 77.0038 98.2234 77.0728 98.3497C77.0987 98.3971 77.1296 98.4726 77.1655 98.576C77.2173 98.6708 77.3337 98.8841 77.5148 99.2159C77.6355 99.4371 77.8561 99.7473 78.1766 100.147C78.497 100.546 78.8376 100.944 79.1983 101.342C79.5589 101.74 79.9024 102.106 80.2286 102.441C80.5619 102.751 80.794 102.932 80.9247 102.984C80.9218 102.903 80.8988 102.824 80.8557 102.745C80.8198 102.641 80.7968 102.561 80.7867 102.505L79.9867 100.42C79.7826 99.8955 79.6287 99.313 79.5251 98.6723C79.4287 98.0072 79.4091 97.4642 79.4665 97.0433C79.4765 96.8738 79.5289 96.7631 79.6237 96.7114C79.7185 96.6596 79.8442 96.6833 80.0008 96.7824C80.5109 97.0782 80.9498 97.4128 81.3177 97.7862C81.6927 98.1352 82.044 98.4971 82.3717 98.872C82.7065 99.2224 83.0535 99.5764 83.4127 99.934C83.7792 100.267 84.221 100.569 84.7382 100.841C84.7525 100.566 84.7294 100.148 84.6689 99.5867C84.5998 99.0093 84.5307 98.4318 84.4616 97.8543C84.4083 97.2682 84.3737 96.7539 84.3577 96.3115C84.3332 95.8532 84.3683 95.5982 84.4631 95.5465C84.5105 95.5206 84.5938 95.4854 84.7131 95.4408C84.8323 95.3963 84.9156 95.361 84.963 95.3352C85.1052 95.2576 85.3142 95.3588 85.5901 95.6388C85.8574 95.9031 86.1434 96.2392 86.448 96.6471C86.7599 97.0305 87.0681 97.4262 87.3728 97.8341C87.6846 98.2176 87.9483 98.4941 88.1638 98.6635C88.3132 98.787 88.49 98.8854 88.694 98.9586C88.898 99.0318 89.0977 99.0971 89.2931 99.1545C89.5287 99.2105 89.7643 99.2665 89.9999 99.3224ZM96.9909 89.5085C97.2151 89.9193 97.3122 90.379 97.2822 90.8876C97.2679 91.3875 97.1855 91.8939 97.0348 92.4068C96.8755 92.9039 96.6759 93.4024 96.4361 93.9024C96.1877 94.3866 95.9537 94.8219 95.734 95.2084C95.5387 95.6021 95.3772 95.9261 95.2494 96.1804C95.1217 96.4347 95.0793 96.6013 95.1224 96.6803C95.2345 96.8857 95.4178 97.1651 95.6721 97.5184C95.9179 97.8559 96.1931 98.2286 96.4977 98.6365C96.8096 99.02 97.1221 99.4236 97.4354 99.8473C97.7645 100.262 98.0483 100.651 98.2869 101.013C98.2955 101.029 98.3422 101.095 98.427 101.213C98.5276 101.322 98.6368 101.447 98.7547 101.588C98.8883 101.72 98.9975 101.845 99.0823 101.963C99.1915 102.088 99.2547 102.166 99.272 102.198C99.3323 102.308 99.3891 102.431 99.4423 102.566C99.5199 102.708 99.5652 102.848 99.5782 102.984C99.6156 103.128 99.6163 103.261 99.5804 103.383C99.5446 103.505 99.4634 103.6 99.337 103.669C99.1632 103.764 98.9937 103.754 98.8285 103.639C98.6719 103.54 98.5547 103.42 98.4771 103.278C98.4599 103.246 98.4426 103.214 98.4254 103.183C98.4239 103.143 98.4103 103.099 98.3844 103.051C98.2896 102.877 97.972 102.446 97.4316 101.756C96.8913 101.067 96.2532 100.236 95.5175 99.2639C94.7903 98.3073 94.0358 97.2631 93.254 96.1313C92.4636 94.9837 91.7752 93.8728 91.1888 92.7984C91.1457 92.7194 91.1062 92.6282 91.0702 92.5247C91.0257 92.4055 90.9818 92.3064 90.9387 92.2274C90.7893 92.3294 90.5911 92.5299 90.3441 92.8288C90.1129 93.119 89.899 93.4409 89.7023 93.7943C89.4969 94.132 89.3318 94.4681 89.2069 94.8029C89.0892 95.1132 89.0735 95.3474 89.1597 95.5054L88.9938 95.5959C88.9464 95.6218 88.8738 95.6204 88.7762 95.5917C88.6627 95.5716 88.5607 95.535 88.4701 95.4819C88.3638 95.4374 88.2654 95.3885 88.1749 95.3354C88.0844 95.2823 88.0305 95.2399 88.0132 95.2083C87.8321 94.8765 87.8615 94.4606 88.1013 93.9607C88.3324 93.4449 88.6799 92.9168 89.1438 92.3766C89.6148 91.8119 90.1713 91.2723 90.8133 90.7578C91.4467 90.2276 92.0794 89.79 92.7114 89.445C93.3276 89.1087 93.8799 88.8996 94.3683 88.8175C94.8725 88.7269 95.3071 88.7153 95.672 88.7827C96.0282 88.8343 96.3177 88.9327 96.5404 89.0777C96.7631 89.2227 96.9133 89.3663 96.9909 89.5085ZM95.7908 90.0713C95.7046 89.9133 95.4208 89.8631 94.9396 89.9207C94.4498 89.9625 93.9362 90.1299 93.399 90.4231C92.925 90.6819 92.5861 90.8874 92.3821 91.0397C92.1782 91.192 92.0453 91.3056 91.9836 91.3803C92.09 91.6503 92.2301 91.9635 92.404 92.3197C92.5779 92.6759 92.7641 93.0357 92.9624 93.3991C93.1694 93.7783 93.3799 94.1453 93.5941 94.5C93.8154 94.8304 94.0065 95.1054 94.1675 95.3252C94.3111 95.0623 94.5078 94.7088 94.7576 94.2649C95.0146 93.7965 95.2508 93.3087 95.4662 92.8015C95.6729 92.2786 95.82 91.7779 95.9075 91.2995C96.0022 90.7967 95.9633 90.3873 95.7908 90.0713ZM104.832 93.2263C104.901 93.3527 104.906 93.4733 104.845 93.5883C104.785 93.7032 104.692 93.7952 104.565 93.8642C104.423 93.9418 104.2 93.8894 103.895 93.7071C103.606 93.5161 103.279 93.254 102.912 92.9208C102.546 92.5876 102.17 92.2185 101.785 91.8135C101.391 91.3927 101.035 91.0028 100.716 90.6437C100.388 90.2689 100.115 89.9565 99.8967 89.7066C99.6941 89.4481 99.5842 89.303 99.5669 89.2714C99.5324 89.2082 99.4103 89.0596 99.2005 88.8255C99.0065 88.5827 98.7068 88.2029 98.3016 87.6858C97.9122 87.1601 97.4164 86.4772 96.8142 85.637C96.2192 84.7723 95.5 83.6987 94.6564 82.4161C94.5787 82.2739 94.5033 82.0792 94.4299 81.8322C94.3566 81.5851 94.4068 81.4141 94.5806 81.3193C94.8018 81.1985 95.0497 81.2581 95.3241 81.4979C95.6144 81.7291 95.9118 82.0487 96.2165 82.4566C96.5369 82.8559 96.8466 83.2918 97.1456 83.7643C97.4359 84.2211 97.7039 84.6182 97.9496 84.9557C98.2888 85.4268 98.5942 85.8548 98.8658 86.2398C99.1532 86.6161 99.4327 86.9967 99.7043 87.3816C99.9831 87.7421 100.283 88.122 100.603 88.5213C100.939 88.9119 101.317 89.3413 101.737 89.8095L104.832 93.2263ZM112.285 86.8209C112.318 86.8439 112.352 86.887 112.386 86.9502C112.438 87.045 112.444 87.226 112.406 87.4932C112.393 87.5823 112.346 87.741 112.266 87.9695C112.185 88.1979 112.05 88.4565 111.859 88.7453C111.668 89.0341 111.405 89.3416 111.07 89.6678C110.751 89.9853 110.331 90.2864 109.81 90.571C109.446 90.7693 109.048 90.8844 108.614 90.9161C108.172 90.932 107.73 90.8553 107.289 90.6859C106.839 90.5007 106.398 90.2185 105.965 89.8394C105.524 89.4444 105.127 88.9231 104.773 88.2753C104.437 87.6591 104.201 87.0393 104.066 86.4159C103.931 85.7924 103.87 85.2106 103.882 84.6705C103.911 84.1217 104.011 83.6469 104.182 83.2461C104.352 82.8452 104.58 82.5672 104.864 82.412C105.117 82.274 105.4 82.1913 105.713 82.1639C106.034 82.1121 106.34 82.1092 106.631 82.1551C106.939 82.1923 107.212 82.2792 107.45 82.4156C107.68 82.5362 107.851 82.6992 107.963 82.9046C108.093 83.1416 108.116 83.4468 108.032 83.8204C107.965 84.1853 107.842 84.5603 107.662 84.9453C107.474 85.3145 107.269 85.6522 107.046 85.9582C106.815 86.2485 106.612 86.441 106.439 86.5359C106.344 86.5876 106.235 86.5956 106.113 86.5597C105.998 86.4994 105.906 86.406 105.837 86.2796C105.717 86.0584 105.717 85.8329 105.837 85.603C105.974 85.3645 106.134 85.1332 106.32 84.909C106.496 84.6691 106.641 84.4263 106.753 84.1806C106.88 83.9263 106.875 83.6727 106.737 83.4199C106.72 83.3883 106.637 83.3309 106.489 83.2476C106.341 83.1643 106.094 83.2175 105.746 83.4073C105.588 83.4935 105.458 83.6875 105.356 83.9892C105.246 84.2751 105.182 84.6278 105.165 85.0472C105.139 85.4509 105.179 85.9006 105.286 86.3961C105.384 86.8759 105.566 87.3607 105.833 87.8505C106.058 88.2613 106.331 88.5938 106.655 88.848C106.994 89.0935 107.347 89.2701 107.713 89.3778C108.071 89.4696 108.442 89.4925 108.827 89.4464C109.212 89.4004 109.57 89.2868 109.902 89.1057C110.139 88.9763 110.366 88.791 110.583 88.5496C110.807 88.2837 111.007 88.0308 111.184 87.7909C111.368 87.5265 111.521 87.2995 111.643 87.1098C111.772 86.8958 111.86 86.7758 111.908 86.7499C111.955 86.724 112.015 86.7219 112.089 86.7434C112.178 86.7563 112.243 86.7821 112.285 86.8209ZM115.751 74.2556C115.675 74.6047 115.512 75.0012 115.262 75.4452C115.003 75.8733 114.736 76.2857 114.46 76.6823C114.185 77.0788 113.944 77.4258 113.737 77.7233C113.521 78.0049 113.427 78.1694 113.452 78.2168C113.478 78.2642 113.588 78.3891 113.78 78.5916C113.973 78.7941 114.199 79.0397 114.459 79.3284C114.726 79.5927 115.002 79.8727 115.287 80.1686C115.571 80.4644 115.818 80.7294 116.028 80.9635C116.146 81.1043 116.298 81.2881 116.483 81.515C116.668 81.742 116.846 81.9732 117.015 82.2087C117.201 82.4357 117.365 82.6432 117.509 82.8314C117.644 83.0037 117.716 83.0978 117.725 83.1136C117.854 83.3506 117.948 83.617 118.007 83.9129C118.066 84.2089 118.009 84.4042 117.835 84.4991C117.74 84.5509 117.632 84.5588 117.51 84.5229C117.387 84.487 117.269 84.4389 117.154 84.3786C117.03 84.3025 116.927 84.2257 116.844 84.1481C116.76 84.0706 116.706 84.0081 116.68 83.9607C116.663 83.9291 116.637 83.8817 116.602 83.8185C116.583 83.7467 116.553 83.6713 116.509 83.5923C116.346 83.2921 116.061 82.8835 115.656 82.3664C115.529 82.2099 115.32 81.9758 115.026 81.6641C114.733 81.3524 114.436 81.0329 114.134 80.7054C113.782 80.3234 113.393 79.9105 112.966 79.4667C112.782 79.28 112.682 79.191 112.666 79.1996C112.556 79.26 112.405 79.4346 112.214 79.7233C112.03 79.9877 111.828 80.3132 111.609 80.6997C111.38 81.0703 111.149 81.4734 110.915 81.9087C110.672 82.3282 110.449 82.7269 110.245 83.1048C110.033 83.4669 109.855 83.7794 109.711 84.0423C109.543 84.2981 109.435 84.4389 109.388 84.4647C109.183 84.5769 108.978 84.5963 108.774 84.5231C108.57 84.4499 108.42 84.3264 108.326 84.1526C108.274 84.0578 108.335 83.8502 108.509 83.5298C108.658 83.2022 108.87 82.82 109.144 82.3832C109.402 81.9551 109.696 81.4975 110.025 81.0104C110.338 80.5319 110.632 80.0944 110.908 79.6978C111.199 79.2927 111.437 78.9579 111.621 78.6935C111.821 78.4205 111.92 78.284 111.92 78.284C111.381 77.6348 110.909 77.0517 110.504 76.5347C110.158 76.088 109.833 75.6808 109.53 75.3131C109.242 74.9368 109.09 74.7329 109.073 74.7013C108.961 74.4959 108.918 74.3242 108.946 74.1863C108.98 74.024 109.053 73.9126 109.163 73.8522C109.337 73.7574 109.512 73.8155 109.689 74.0266C110.328 74.785 110.9 75.4571 111.405 76.0431C111.925 76.6205 112.368 77.0757 112.735 77.4089C112.86 77.2997 113.057 77.0791 113.327 76.7472C113.588 76.3995 113.861 76.0353 114.146 75.6545C114.43 75.2737 114.688 74.9382 114.919 74.648C115.157 74.3333 115.3 74.163 115.348 74.1372C115.442 74.0854 115.515 74.0869 115.565 74.1414C115.631 74.1874 115.693 74.2254 115.751 74.2556ZM128.115 78.1805C128.148 78.2035 128.182 78.2466 128.217 78.3098C128.268 78.4046 128.275 78.5856 128.236 78.8528C128.223 78.9418 128.177 79.1006 128.096 79.329C128.016 79.5575 127.88 79.8161 127.689 80.1049C127.498 80.3937 127.235 80.7012 126.901 81.0274C126.582 81.3449 126.162 81.646 125.641 81.9306C125.277 82.1289 124.879 82.2439 124.445 82.2757C124.002 82.2916 123.56 82.2148 123.119 82.0455C122.67 81.8603 122.229 81.5781 121.796 81.199C121.355 80.804 120.958 80.2827 120.604 79.6349C120.268 79.0187 120.032 78.3989 119.897 77.7754C119.762 77.152 119.7 76.5702 119.713 76.0301C119.742 75.4813 119.841 75.0065 120.012 74.6056C120.183 74.2048 120.411 73.9268 120.695 73.7715C120.948 73.6336 121.231 73.5509 121.544 73.5235C121.864 73.4717 122.17 73.4687 122.462 73.5146C122.769 73.5519 123.042 73.6387 123.281 73.7752C123.511 73.8958 123.682 74.0588 123.794 74.2642C123.923 74.5012 123.946 74.8064 123.863 75.18C123.796 75.5449 123.672 75.9198 123.493 76.3049C123.305 76.6741 123.099 77.0118 122.877 77.3178C122.646 77.6081 122.443 77.8006 122.269 77.8955C122.174 77.9472 122.066 77.9551 121.944 77.9193C121.829 77.859 121.737 77.7656 121.668 77.6392C121.547 77.418 121.547 77.1925 121.668 76.9626C121.804 76.7241 121.965 76.4928 122.15 76.2686C122.327 76.0287 122.471 75.7858 122.583 75.5402C122.711 75.2858 122.706 75.0323 122.568 74.7795C122.551 74.7479 122.468 74.6905 122.32 74.6072C122.172 74.5239 121.924 74.5771 121.577 74.7668C121.419 74.8531 121.289 75.047 121.187 75.3487C121.076 75.6347 121.013 75.9873 120.995 76.4068C120.97 76.8105 121.01 77.2601 121.116 77.7557C121.214 78.2355 121.397 78.7203 121.664 79.2101C121.888 79.6209 122.162 79.9534 122.485 80.2076C122.824 80.4531 123.177 80.6297 123.544 80.7374C123.901 80.8292 124.273 80.8521 124.658 80.806C125.043 80.7599 125.401 80.6464 125.733 80.4653C125.97 80.3359 126.197 80.1505 126.414 79.9091C126.638 79.6433 126.838 79.3904 127.015 79.1505C127.198 78.8861 127.351 78.6591 127.473 78.4694C127.603 78.2553 127.691 78.1354 127.738 78.1095C127.786 78.0836 127.846 78.0814 127.919 78.103C128.008 78.1159 128.074 78.1417 128.115 78.1805Z" fill="#FFBF83"/>
</svg>
