<svg width="133" height="136" viewBox="0 0 133 136" fill="none" xmlns="http://www.w3.org/2000/svg">
<path d="M54.6825 38.1903C55.0977 38.9511 55.3539 39.8726 55.451 40.9551C55.5654 41.9787 55.564 43.0162 55.4467 44.0676C55.3294 45.119 55.1014 46.058 54.7627 46.8847C54.424 47.7113 54.0074 48.2596 53.5129 48.5295C52.9804 48.8201 52.287 48.9517 51.4328 48.9243C50.5786 48.8968 49.8436 48.6809 49.2279 48.2764C49.048 48.1278 48.9201 48.0742 48.844 48.1157C48.6918 48.1987 48.5916 48.3769 48.5433 48.6501C48.5122 48.8645 48.4206 49.0133 48.2684 49.0963C48.1924 49.1378 48.016 49.086 47.7393 48.9408C47.4798 48.7368 47.21 48.5139 46.9298 48.2718C46.6289 47.9918 46.3383 47.7308 46.0581 47.4888C45.8159 47.226 45.6533 47.0185 45.5703 46.8664C45.508 46.7523 45.4215 46.5033 45.3107 46.1194C45.2172 45.6768 45.1393 45.3984 45.0771 45.2843L43.52 42.4316C42.7311 40.9862 42.001 39.2866 41.3295 37.3328C40.6753 35.3202 40.1975 33.3594 39.8962 31.4505C39.6328 29.5208 39.6099 27.8054 39.8273 26.3044C40.024 24.7654 40.6169 23.726 41.6058 23.1862C42.2525 22.8333 42.811 22.7259 43.2813 22.8641C43.7309 22.9643 44.018 23.1285 44.1426 23.3567C44.2672 23.5849 44.2655 23.808 44.1376 24.0259C44.0097 24.2438 43.8922 24.4808 43.785 24.7367C43.3392 25.8193 43.0628 27.0315 42.956 28.3734C42.8872 29.6945 42.936 31.0502 43.1023 32.4404C43.3067 33.8099 43.608 35.1759 44.0061 36.5384C44.4214 37.8421 44.9198 39.0264 45.501 40.0914C45.5874 39.7975 45.7205 39.4533 45.9002 39.059C46.0972 38.6059 46.3236 38.1614 46.5794 37.7256C46.8352 37.2898 47.1308 36.8816 47.4662 36.5011C47.7808 36.0826 48.1092 35.7799 48.4516 35.593C49.2123 35.1778 49.9039 34.9978 50.5264 35.053C51.1662 35.0493 51.7438 35.2031 52.2592 35.5142C52.7919 35.7665 53.2519 36.1572 53.6394 36.6862C54.0442 37.1564 54.3919 37.6578 54.6825 38.1903ZM52.0994 39.1559C51.5181 38.0909 50.8471 37.766 50.0863 38.1812C49.6679 38.4095 49.3049 38.8298 48.9973 39.4421C48.7069 39.9955 48.4771 40.6146 48.3078 41.2994C48.1178 41.9462 48.0142 42.5704 47.9971 43.1722C47.98 43.7739 48.0337 44.1889 48.1582 44.4172C48.262 44.6073 48.4731 44.8131 48.7913 45.0343C49.0888 45.2175 49.4052 45.3904 49.7408 45.5528C50.0763 45.7153 50.4204 45.8483 50.7732 45.952C51.1052 46.0176 51.3663 45.9985 51.5565 45.8947C51.9369 45.6871 52.2134 45.2893 52.3862 44.7013C52.5589 44.1134 52.6625 43.4891 52.6969 42.8285C52.7486 42.1092 52.7138 41.4123 52.5926 40.738C52.4714 40.0636 52.307 39.5363 52.0994 39.1559ZM49.7977 95.6808C49.9076 95.8821 49.9408 96.0926 49.8974 96.3122C49.854 96.5319 49.7717 96.7401 49.6505 96.9369C49.5156 97.1085 49.3612 97.2744 49.1873 97.4346C49.0387 97.5811 48.9014 97.6886 48.7756 97.7573C48.2472 98.0457 47.6432 98.0161 46.9636 97.6686C46.2703 97.2958 45.6124 96.8384 44.99 96.2964C44.3538 95.7292 43.808 95.1779 43.3526 94.6427C42.9223 94.0937 42.6934 93.7941 42.666 93.7438C42.6661 94.103 42.7566 94.6577 42.9375 95.4081C43.1436 96.1447 43.3189 96.9146 43.4632 97.7176C43.5938 98.4954 43.6272 99.2446 43.5633 99.9653C43.5109 100.647 43.2205 101.132 42.6921 101.421C42.4404 101.558 42.119 101.537 41.7277 101.359C41.3364 101.181 40.9097 100.908 40.4474 100.539C39.9852 100.171 39.4886 99.7399 38.9577 99.2459C38.452 98.7381 37.9405 98.2498 37.4233 97.7809C36.9313 97.2983 36.4599 96.8535 36.0091 96.4464C35.5445 96.0141 35.1418 95.695 34.8008 95.4892C34.8558 95.9491 34.999 96.5404 35.2303 97.2633C35.4867 97.9725 35.7763 98.7125 36.0991 99.4835C36.4082 100.229 36.7298 100.968 37.064 101.7C37.3982 102.432 37.7096 103.062 37.998 103.591C38.1902 103.943 38.2269 104.25 38.108 104.51C38.0143 104.758 37.8668 104.936 37.6655 105.046C37.3887 105.197 37.0158 105.172 36.5467 104.971C36.0639 104.744 35.5262 104.417 34.9335 103.99C34.3408 103.562 33.7196 103.052 33.0696 102.46C32.4449 101.854 31.8327 101.241 31.2331 100.621C30.6587 99.9871 30.1427 99.3707 29.6849 98.7714C29.2135 98.1469 28.8541 97.6082 28.6069 97.1553C28.4284 96.8282 28.2761 96.5194 28.1502 96.2288C28.0518 95.9886 27.9476 95.7679 27.8378 95.5666C27.7531 95.3516 27.7038 95.2315 27.6901 95.2063C27.6489 95.1308 27.5963 95.0942 27.5322 95.0965C27.4933 95.0851 27.4464 95.0291 27.3915 94.9284C27.3503 94.8529 27.3765 94.6916 27.4703 94.4445C27.5754 94.1585 27.7287 93.9606 27.93 93.8507C28.2822 93.6584 28.5499 93.6103 28.733 93.7063C28.9412 93.7886 29.1002 93.9304 29.2101 94.1317C29.2513 94.2072 29.3005 94.3273 29.3578 94.492C29.4402 94.643 29.6256 94.9827 29.914 95.5111C30.1063 95.8634 30.4576 96.3575 30.9679 96.9934C31.4783 97.6293 32.0207 98.264 32.5951 98.8976C33.1695 99.5312 33.7165 100.114 34.236 100.647C34.7669 101.141 35.1364 101.43 35.3447 101.512C35.34 101.384 35.3034 101.257 35.2347 101.131C35.1775 100.966 35.1409 100.839 35.1248 100.75L33.8507 97.4284C33.5256 96.5935 33.2806 95.6658 33.1156 94.6455C32.962 93.5862 32.9309 92.7214 33.0222 92.0511C33.0382 91.7811 33.1216 91.6049 33.2726 91.5225C33.4236 91.4401 33.6238 91.4778 33.8732 91.6356C34.6855 92.1067 35.3846 92.6396 35.9704 93.2342C36.5677 93.79 37.1273 94.3664 37.649 94.9634C38.1823 95.5215 38.7349 96.0853 39.307 96.6548C39.8906 97.1854 40.5942 97.6668 41.418 98.099C41.4407 97.662 41.404 96.9963 41.3076 96.1018C41.1976 95.1821 41.0875 94.2624 40.9774 93.3427C40.8925 92.4093 40.8374 91.5903 40.812 90.8856C40.773 90.1558 40.8289 89.7497 40.9799 89.6673C41.0554 89.6261 41.188 89.57 41.3779 89.499C41.5678 89.428 41.7005 89.372 41.776 89.3308C42.0024 89.2071 42.3353 89.3684 42.7747 89.8144C43.2004 90.2352 43.6558 90.7704 44.141 91.4201C44.6376 92.0308 45.1286 92.661 45.6138 93.3106C46.1104 93.9213 46.5303 94.3616 46.8736 94.6315C47.1116 94.8282 47.393 94.9848 47.7179 95.1014C48.0428 95.218 48.3609 95.322 48.672 95.4134C49.0473 95.5026 49.4225 95.5917 49.7977 95.6808ZM57.0757 85.7319C57.3779 86.2855 57.5908 86.8551 57.7145 87.4408C57.8382 88.0264 57.8773 88.5766 57.8316 89.0914C57.786 89.6062 57.6489 90.073 57.4202 90.4917C57.203 90.8715 56.893 91.1713 56.4904 91.3911C55.7859 91.7756 55.1224 91.8765 54.5001 91.6936C53.8777 91.5107 53.3091 91.2169 52.7943 90.8121C52.3045 90.3935 51.8777 89.9407 51.5138 89.4535C51.1614 88.9273 50.9096 88.5259 50.7585 88.2491C50.5113 87.7962 50.2995 87.2586 50.1232 86.6363C49.9583 85.9752 49.8586 85.3438 49.8241 84.7421C49.8148 84.1266 49.8719 83.573 49.9953 83.0811C50.1187 82.5891 50.344 82.2539 50.6711 82.0754C50.7466 82.0342 50.8735 81.9975 51.052 81.9654C51.2556 81.9196 51.4729 81.899 51.704 81.9035C51.9351 81.908 52.1547 81.9514 52.3629 82.0337C52.5963 82.1023 52.7931 82.2235 52.9533 82.3973C53.2438 82.2714 53.5755 82.221 53.9485 82.2461C54.3214 82.2711 54.5479 82.3271 54.628 82.414C55.1864 82.9584 55.6693 83.544 56.0767 84.1707C56.5092 84.7838 56.8423 85.3041 57.0757 85.7319ZM55.0065 85.9796C54.8004 85.6021 54.5498 85.2327 54.2546 84.8713C53.9456 84.4847 53.5612 84.1394 53.1012 83.8352C53.0646 83.8878 53.0086 83.9348 52.9331 83.976C52.8325 84.0309 52.7375 84.0664 52.6483 84.0824C52.5843 84.0847 52.5271 84.0996 52.4767 84.1271C52.1748 84.2919 51.9838 84.5104 51.9038 84.7827C51.8101 85.0298 51.7884 85.3192 51.8388 85.651C51.9007 85.9438 52.0014 86.248 52.1411 86.5637C52.2807 86.8794 52.4261 87.1757 52.5772 87.4524C52.7282 87.7292 52.9125 88.0369 53.1299 88.3754C53.3336 88.6888 53.5556 88.9759 53.7959 89.2366C54.0614 89.4837 54.3314 89.6792 54.606 89.8233C54.8668 89.9421 55.123 89.9329 55.3747 89.7956C55.6263 89.6583 55.7715 89.4157 55.8103 89.0679C55.8354 88.695 55.8021 88.3049 55.7105 87.8977C55.6189 87.4905 55.4964 87.1165 55.343 86.7756C55.201 86.3959 55.0889 86.1305 55.0065 85.9796ZM74.1373 80.9756C74.2197 81.1265 74.2518 81.305 74.2335 81.5109C74.2153 81.7168 74.165 81.9239 74.0827 82.1321C74.0255 82.3266 73.9364 82.5222 73.8152 82.719C73.7054 82.8769 73.5876 82.9902 73.4618 83.0588C73.034 83.2923 72.4324 83.5064 71.6568 83.7011C70.8927 83.8568 70.1995 83.8433 69.5772 83.6604C68.9159 83.4661 68.2638 83.1689 67.6208 82.7687C66.9641 82.3433 66.1185 81.6618 65.0842 80.724C65.4117 81.9823 65.682 83.2554 65.8951 84.5434C66.1334 85.8177 66.0971 87.1275 65.7863 88.4728C65.7635 88.5506 65.7017 88.617 65.6011 88.6719C65.4249 88.768 65.1882 88.783 64.8907 88.7167C64.5933 88.6504 64.3965 88.5292 64.3004 88.3531C64.2042 88.1769 63.9593 87.7881 63.5656 87.1865C63.1834 86.546 62.7542 85.8494 62.2782 85.0969C61.7884 84.3191 61.2986 83.5414 60.8087 82.7637C60.3304 81.947 59.947 81.2745 59.6586 80.7461C59.5212 80.4945 59.3553 80.1605 59.1607 79.7441C58.9524 79.3026 58.8287 78.8966 58.7897 78.526C58.7874 78.4619 58.8206 78.3132 58.8891 78.0798C58.9829 77.8327 59.1304 77.6542 59.3317 77.5443C59.5078 77.4482 59.6703 77.5065 59.819 77.7192C59.9678 77.9319 60.1177 78.1767 60.2688 78.4535L63.5237 84.417C63.5924 84.5429 63.7011 84.7121 63.8499 84.9249C64.0238 85.1239 64.176 85.2531 64.3064 85.3125C64.2536 84.5576 64.1207 83.7157 63.9076 82.7869C63.7061 81.8191 63.5193 80.9086 63.3475 80.0553C63.162 79.1768 63.0451 78.4242 62.9969 77.7973C62.9349 77.1453 63.0172 76.7575 63.2437 76.6339C63.4953 76.4965 63.7241 76.437 63.93 76.4552C64.1359 76.4735 64.3716 76.6061 64.637 76.8531C65.1611 77.5142 65.6188 78.1135 66.0102 78.651C66.3878 79.1634 66.7506 79.6186 67.0984 80.0166C67.4715 80.4008 67.8685 80.7393 68.2895 81.032C68.722 81.2859 69.2162 81.4733 69.7722 81.5945C70.303 81.7293 70.8235 81.7555 71.3337 81.673C71.869 81.5767 72.3003 81.4393 72.6274 81.2608C72.7783 81.1784 72.9282 81.064 73.0768 80.9175C73.2118 80.7459 73.317 80.6395 73.3925 80.5983C73.4931 80.5433 73.6293 80.5833 73.8009 80.7183C73.9977 80.8395 74.1098 80.9252 74.1373 80.9756ZM79.3079 62.0364C79.1868 62.5923 78.9273 63.2239 78.5294 63.9309C78.1178 64.6128 77.6924 65.2695 77.2534 65.9011C76.8143 66.5326 76.43 67.0853 76.1007 67.5589C75.7577 68.0075 75.6067 68.2695 75.6479 68.3449C75.6891 68.4204 75.8631 68.6194 76.1697 68.9419C76.4764 69.2644 76.8368 69.6556 77.2511 70.1153C77.6767 70.5362 78.1161 70.9822 78.5692 71.4533C79.0223 71.9245 79.416 72.3465 79.7501 72.7193C79.9377 72.9435 80.1792 73.2363 80.4744 73.5977C80.7697 73.9591 81.0523 74.3274 81.3224 74.7025C81.6176 75.0639 81.8796 75.3944 82.1085 75.6941C82.3236 75.9685 82.4381 76.1184 82.4518 76.1435C82.6578 76.521 82.8078 76.9453 82.9017 77.4166C82.9956 77.8879 82.9042 78.199 82.6274 78.3501C82.4764 78.4325 82.3037 78.4451 82.1092 78.388C81.9147 78.3309 81.726 78.2543 81.5429 78.1582C81.3461 78.037 81.1814 77.9147 81.0487 77.7912C80.9159 77.6677 80.829 77.5682 80.7878 77.4927C80.7603 77.4423 80.7191 77.3669 80.6642 77.2662C80.6344 77.1518 80.5852 77.0317 80.5165 76.9059C80.2555 76.4278 79.8024 75.777 79.157 74.9536C78.9556 74.7043 78.6215 74.3314 78.1546 73.8351C77.6878 73.3388 77.214 72.8298 76.7334 72.3083C76.1728 71.6999 75.5526 71.0423 74.8729 70.3356C74.58 70.0382 74.4209 69.8964 74.3958 69.9102C74.2196 70.0063 73.9795 70.2843 73.6753 70.7443C73.3826 71.1653 73.0613 71.6836 72.7114 72.2991C72.3478 72.8895 71.9796 73.5313 71.6069 74.2247C71.2204 74.8928 70.8648 75.5278 70.5401 76.1296C70.2017 76.7062 69.9181 77.2039 69.6894 77.6226C69.4219 78.0299 69.2503 78.2542 69.1749 78.2954C68.8477 78.4739 68.5217 78.5049 68.1968 78.3883C67.8719 78.2717 67.6339 78.075 67.4829 77.7982C67.4004 77.6473 67.4976 77.3166 67.7743 76.8064C68.0121 76.2847 68.3494 75.676 68.7862 74.9804C69.1978 74.2985 69.6655 73.5697 70.1892 72.794C70.6877 72.032 71.1565 71.3352 71.5956 70.7037C72.0599 70.0584 72.4384 69.5252 72.7311 69.1041C73.049 68.6694 73.208 68.452 73.208 68.452C72.3498 67.4181 71.5979 66.4894 70.9526 65.666C70.401 64.9546 69.8838 64.3061 69.4009 63.7206C68.9431 63.1213 68.7005 62.7965 68.6731 62.7462C68.4945 62.419 68.427 62.1457 68.4704 61.926C68.5252 61.6675 68.6407 61.4901 68.8168 61.394C69.0936 61.2429 69.3728 61.3355 69.6543 61.6717C70.6727 62.8795 71.5835 63.9499 72.3868 64.8832C73.2153 65.8026 73.9213 66.5277 74.5048 67.0583C74.7038 66.8844 75.0183 66.5331 75.4483 66.0045C75.8645 65.4508 76.299 64.8707 76.7519 64.2643C77.2047 63.6579 77.6152 63.1235 77.9834 62.6613C78.3631 62.1602 78.5907 61.889 78.6662 61.8478C78.8171 61.7654 78.9327 61.7676 79.0128 61.8546C79.118 61.9277 79.2164 61.9883 79.3079 62.0364ZM98.9373 64.4024C99.1318 64.4595 99.2359 64.5007 99.2496 64.5258C99.2771 64.5762 99.284 64.7683 99.2704 65.1024C99.2819 65.4227 99.2499 65.783 99.1746 66.1834C99.0992 66.5838 98.9849 66.9728 98.8317 67.3503C98.6899 67.6889 98.4932 67.9269 98.2416 68.0643C97.7132 68.3527 97.2305 68.4855 96.7935 68.4628C96.3428 68.4148 95.9149 68.2891 95.5099 68.0856C95.1301 67.8684 94.7743 67.6053 94.4424 67.2966C94.122 66.9489 93.828 66.6195 93.5602 66.3085C93.4137 66.1598 93.3153 66.0992 93.265 66.1267C93.1895 66.1679 93.1896 66.5271 93.2653 67.2042C93.3273 67.8563 93.3984 68.5849 93.4787 69.3902C93.5704 70.1566 93.6415 70.8853 93.692 71.5762C93.754 72.2282 93.7472 72.5748 93.6717 72.616C93.2188 72.8632 92.7258 72.8874 92.1926 72.6885C91.6709 72.4507 91.1721 72.1351 90.6961 71.7417C90.2316 71.3095 89.8048 70.8566 89.4157 70.3831C89.0129 69.8845 88.7165 69.491 88.5266 69.2028C88.0803 68.5646 87.2987 67.5216 86.1818 66.0737C85.065 64.6257 83.8004 62.8175 82.3883 60.649C82.077 60.1984 81.7806 59.805 81.4991 59.4687C81.229 59.0936 80.9258 58.6876 80.5894 58.2507C80.2529 57.8138 79.8947 57.3072 79.5148 56.7307C79.1349 56.1543 78.7046 55.4257 78.2239 54.545C78.1964 54.4947 78.1197 54.3243 77.9938 54.0338C77.8679 53.7432 77.7408 53.4207 77.6126 53.0661C77.4844 52.7115 77.402 52.3809 77.3653 52.0744C77.3537 51.7541 77.4235 51.5527 77.5744 51.4703C77.7506 51.3742 77.9759 51.3982 78.2505 51.5422C78.5114 51.6611 78.7677 51.8315 79.0194 52.0533C79.2963 52.2615 79.5285 52.4776 79.7162 52.7018C79.9039 52.9259 80.0252 53.0883 80.0801 53.189C80.2861 53.5664 80.4532 53.9324 80.5814 54.287C80.7097 54.6416 80.8493 54.9573 81.0004 55.2341C81.2064 55.6115 81.4925 56.0759 81.8587 56.6271C82.2501 57.1647 82.6609 57.7079 83.0911 58.2569C83.5214 58.8059 83.9322 59.3491 84.3236 59.8867C84.7012 60.399 85.0113 60.8176 85.2539 61.1424C85.2677 61.1676 85.389 61.33 85.6178 61.6297C85.8467 61.9293 86.1236 62.317 86.4486 62.7928C86.7851 63.2297 87.1364 63.7238 87.5026 64.275C87.8802 64.7874 88.2578 65.2998 88.6355 65.8122C88.9994 66.2994 89.3232 66.7432 89.607 67.1434C89.9023 67.5048 90.1105 67.7668 90.2318 67.9292C90.273 68.0046 90.3474 68.111 90.455 68.2483C90.574 68.3466 90.6941 68.477 90.8154 68.6394C90.9619 68.788 91.1015 68.9241 91.2342 69.0476C91.3669 69.1712 91.4916 69.2501 91.6083 69.2843C91.5945 68.9 91.5291 68.3315 91.4123 67.5788C91.3205 66.8124 91.2219 66.0334 91.1165 65.2418C91.0362 64.4365 90.9788 63.733 90.9443 63.1313C90.9213 62.4908 90.9978 62.1224 91.174 62.0263C91.3753 61.9164 91.5594 61.8649 91.7264 61.8717C91.8935 61.8785 92.0914 61.8521 92.3201 61.7926C92.6267 61.7559 92.828 61.8256 92.9242 62.0018C93.0066 62.1527 93.1347 62.3277 93.3087 62.5267C93.5238 62.8012 93.819 63.1626 94.1944 63.6109C94.5811 64.0203 94.9805 64.4229 95.3924 64.8186C95.7906 65.1891 96.1796 65.483 96.5594 65.7002C96.9393 65.9175 97.2298 65.9712 97.4311 65.8613C97.5318 65.8064 97.6015 65.605 97.6403 65.2572C97.6654 64.8843 97.822 64.6029 98.1102 64.4129C98.1606 64.3854 98.2692 64.3751 98.4362 64.3819C98.5895 64.3636 98.7565 64.3704 98.9373 64.4024ZM110.929 60.4535C111.163 60.8813 111.218 61.3411 111.094 61.8331C110.982 62.2861 110.762 62.7494 110.432 63.2231C110.114 63.6579 109.726 64.0824 109.266 64.4966C108.806 64.9108 108.358 65.2862 107.921 65.6226C107.47 65.9339 107.063 66.2051 106.699 66.4363C106.347 66.6285 106.121 66.7521 106.02 66.8071C105.466 67.1092 104.991 67.2546 104.593 67.2433C104.194 67.232 103.872 66.9998 103.625 66.5469C103.542 66.3959 103.486 66.2632 103.456 66.1489C103.413 66.0093 103.479 65.8915 103.655 65.7953C103.731 65.7541 103.87 65.7106 104.074 65.6648C104.264 65.5938 104.409 65.5309 104.51 65.4759C104.61 65.421 104.918 65.2368 105.433 64.9232C105.959 64.5707 106.496 64.1793 107.045 63.7491C107.619 63.3051 108.097 62.8645 108.479 62.4275C108.873 61.9515 108.987 61.5625 108.822 61.2606C108.795 61.2102 108.448 61.2035 107.782 61.2403C107.128 61.2381 106.113 61.2041 104.738 61.1381C103.659 61.0744 102.818 60.8801 102.216 60.5554C101.6 60.2055 101.052 59.5902 100.572 58.7095C100.269 58.156 100.135 57.6412 100.17 57.1654C100.229 56.6757 100.405 56.2204 100.698 55.7994C101.016 55.3646 101.418 54.9653 101.905 54.6014C102.404 54.1986 102.955 53.8324 103.559 53.5027C103.61 53.4753 103.774 53.418 104.053 53.331C104.358 53.2303 104.695 53.1604 105.066 53.1214C105.423 53.0573 105.762 53.0514 106.085 53.104C106.419 53.1176 106.641 53.2251 106.751 53.4264C106.778 53.4767 106.769 53.5797 106.723 53.7353C106.703 53.8771 106.668 54.1414 106.617 54.528C106.528 54.5441 106.369 54.5819 106.14 54.6414C105.937 54.6872 105.695 54.7536 105.416 54.8406C105.149 54.8888 104.882 54.9689 104.617 55.0811C104.338 55.1681 104.123 55.2528 103.972 55.3352C103.317 55.6923 102.858 56.1065 102.592 56.5779C102.313 57.0241 102.359 57.5869 102.73 58.2663C102.909 58.5934 103.199 58.8267 103.602 58.9661C104.03 59.0918 104.514 59.1706 105.054 59.2025C105.58 59.2092 106.138 59.2148 106.728 59.2192C107.33 59.1847 107.908 59.196 108.461 59.2531C109.015 59.3101 109.507 59.4335 109.937 59.6233C110.379 59.7742 110.709 60.0509 110.929 60.4535ZM63.391 118.357C63.4216 118.379 63.4528 118.418 63.4848 118.477C63.5327 118.565 63.5387 118.732 63.5029 118.98C63.4909 119.062 63.4477 119.209 63.3733 119.421C63.2989 119.632 63.1732 119.872 62.9964 120.139C62.8196 120.407 62.5762 120.691 62.2664 120.993C61.9712 121.287 61.5822 121.566 61.0994 121.83C60.7629 122.013 60.3938 122.12 59.9921 122.149C59.5825 122.164 59.1734 122.093 58.765 121.936C58.3486 121.764 57.9402 121.503 57.5397 121.152C57.1313 120.786 56.7634 120.304 56.436 119.704C56.1246 119.133 55.9063 118.559 55.7811 117.982C55.6559 117.405 55.5992 116.866 55.6111 116.366C55.6375 115.858 55.7299 115.418 55.8881 115.047C56.0462 114.676 56.257 114.419 56.5203 114.275C56.7544 114.147 57.0164 114.071 57.3064 114.045C57.603 113.997 57.8863 113.995 58.1563 114.037C58.441 114.072 58.6938 114.152 58.9146 114.278C59.1274 114.39 59.2858 114.541 59.3896 114.731C59.5094 114.95 59.5307 115.233 59.4537 115.579C59.3912 115.917 59.2769 116.264 59.1108 116.621C58.9366 116.962 58.7465 117.275 58.5404 117.558C58.3263 117.827 58.1388 118.006 57.9779 118.093C57.8901 118.141 57.7897 118.149 57.6766 118.115C57.5702 118.06 57.485 117.973 57.4211 117.856C57.3094 117.651 57.3093 117.442 57.421 117.23C57.5473 117.009 57.6962 116.795 57.8677 116.587C58.0313 116.365 58.1649 116.14 58.2686 115.913C58.3869 115.677 58.3822 115.442 58.2544 115.208C58.2385 115.179 58.162 115.126 58.0249 115.049C57.8879 114.972 57.6585 115.021 57.3366 115.196C57.1903 115.276 57.07 115.456 56.9756 115.735C56.8733 116 56.8142 116.327 56.7983 116.715C56.7745 117.089 56.8118 117.505 56.9104 117.964C57.001 118.408 57.17 118.857 57.4175 119.311C57.6251 119.691 57.8786 119.999 58.178 120.234C58.4919 120.462 58.8185 120.625 59.1577 120.725C59.489 120.81 59.8328 120.831 60.1893 120.788C60.5458 120.746 60.8776 120.64 61.1848 120.473C61.4043 120.353 61.6144 120.181 61.8152 119.958C62.0226 119.712 62.2081 119.478 62.3716 119.255C62.5418 119.011 62.6834 118.8 62.7965 118.625C62.9161 118.427 62.9979 118.315 63.0418 118.292C63.0857 118.268 63.1415 118.266 63.2094 118.285C63.2919 118.297 63.3524 118.321 63.391 118.357ZM71.4924 114.277C71.6441 114.555 71.6601 114.793 71.5404 114.992C71.4354 115.182 71.2878 115.329 71.0976 115.433C70.7611 115.616 70.3009 115.678 69.717 115.617C69.125 115.541 68.4912 115.441 67.8155 115.316C67.8168 115.353 67.8607 115.538 67.9473 115.87C68.0405 116.18 68.1204 116.535 68.187 116.936C68.2683 117.328 68.3043 117.707 68.2951 118.073C68.2858 118.439 68.1788 118.678 67.974 118.789C67.8277 118.869 67.6827 118.882 67.5391 118.827C67.3874 118.758 67.2996 118.702 67.2757 118.658C67.2198 118.555 67.1672 118.337 67.1179 118.004C67.0606 117.655 67.0026 117.288 66.944 116.902C66.8774 116.502 66.8154 116.127 66.7581 115.779C66.7008 115.43 66.6363 115.19 66.5644 115.059C66.5325 115 66.3156 114.881 65.9139 114.702C65.5121 114.522 65.0605 114.304 64.5589 114.046C64.0494 113.773 63.5499 113.467 63.0603 113.126C62.5707 112.786 62.2181 112.418 62.0025 112.023C61.9466 111.921 61.9346 111.794 61.9665 111.644C61.9984 111.494 62.0509 111.399 62.124 111.359C62.2118 111.311 62.3488 111.284 62.535 111.277C62.7279 111.248 62.8709 111.283 62.964 111.385C63.3738 111.787 63.8475 112.203 64.385 112.631C64.9145 113.045 65.553 113.38 66.3006 113.636C66.2567 113.451 66.1881 113.204 66.0949 112.894C66.0017 112.584 65.9039 112.248 65.8014 111.887C65.6988 111.525 65.5963 111.163 65.4938 110.801C65.4059 110.431 65.3267 110.095 65.2561 109.792C65.2002 109.48 65.1648 109.224 65.1502 109.024C65.1355 108.823 65.1647 108.702 65.2378 108.662C65.311 108.622 65.4367 108.592 65.6149 108.571C65.7998 108.527 65.9362 108.585 66.024 108.746C66.024 108.746 66.0699 108.882 66.1618 109.155C66.2456 109.413 66.3428 109.73 66.4533 110.107C66.5638 110.483 66.683 110.893 66.8108 111.336C66.9306 111.764 67.0305 112.156 67.1104 112.511C67.1197 112.563 67.1344 112.659 67.1544 112.8C67.189 112.933 67.2203 113.077 67.2483 113.233C67.2909 113.381 67.3295 113.521 67.3641 113.654C67.3907 113.772 67.412 113.846 67.428 113.875C67.4999 114.007 67.6901 114.112 67.9987 114.19C68.314 114.246 68.6512 114.29 69.0103 114.322C69.3615 114.339 69.686 114.342 69.984 114.332C70.2966 114.313 70.4821 114.288 70.5406 114.256C70.5845 114.232 70.6391 114.192 70.7042 114.138C70.7694 114.083 70.8239 114.044 70.8678 114.02C70.9848 113.956 71.1085 113.974 71.2389 114.074C71.3839 114.166 71.4684 114.233 71.4924 114.277ZM77.8388 105.231C78.0465 105.611 78.1363 106.037 78.1085 106.508C78.0954 106.971 78.019 107.44 77.8795 107.915C77.7319 108.375 77.5472 108.836 77.3252 109.299C77.0952 109.748 76.8785 110.151 76.6751 110.509C76.4943 110.873 76.3447 111.173 76.2264 111.409C76.1081 111.644 76.0689 111.798 76.1088 111.872C76.2126 112.062 76.3822 112.32 76.6178 112.648C76.8453 112.96 77.1001 113.305 77.3822 113.683C77.671 114.038 77.9604 114.412 78.2504 114.804C78.5551 115.188 78.8179 115.548 79.0388 115.883C79.0468 115.898 79.0901 115.96 79.1686 116.069C79.2617 116.17 79.3628 116.285 79.4719 116.416C79.5957 116.538 79.6968 116.654 79.7753 116.763C79.8764 116.879 79.935 116.951 79.9509 116.98C80.0068 117.083 80.0594 117.196 80.1087 117.321C80.1805 117.453 80.2225 117.582 80.2345 117.708C80.2691 117.841 80.2698 117.964 80.2366 118.078C80.2033 118.191 80.1282 118.279 80.0112 118.343C79.8502 118.431 79.6933 118.422 79.5403 118.315C79.3953 118.223 79.2868 118.112 79.215 117.98C79.199 117.951 79.183 117.922 79.1671 117.892C79.1657 117.855 79.1531 117.814 79.1291 117.771C79.0413 117.61 78.7472 117.21 78.2469 116.572C77.7466 115.933 77.1558 115.164 76.4745 114.264C75.8013 113.378 75.1027 112.411 74.3788 111.363C73.6469 110.301 73.0095 109.272 72.4665 108.277C72.4266 108.204 72.39 108.12 72.3567 108.024C72.3155 107.913 72.2749 107.822 72.235 107.748C72.0966 107.843 71.9131 108.029 71.6844 108.305C71.4703 108.574 71.2722 108.872 71.0901 109.199C70.9 109.512 70.7471 109.823 70.6314 110.133C70.5224 110.421 70.5079 110.637 70.5877 110.784L70.4341 110.867C70.3902 110.891 70.3231 110.89 70.2326 110.864C70.1275 110.845 70.0331 110.811 69.9492 110.762C69.8508 110.721 69.7597 110.675 69.6759 110.626C69.5921 110.577 69.5422 110.538 69.5262 110.509C69.3585 110.201 69.3857 109.816 69.6077 109.353C69.8217 108.876 70.1435 108.387 70.573 107.887C71.0091 107.364 71.5244 106.864 72.1189 106.388C72.7053 105.897 73.2911 105.492 73.8763 105.172C74.4469 104.861 74.9583 104.667 75.4105 104.591C75.8774 104.507 76.2797 104.497 76.6176 104.559C76.9475 104.607 77.2155 104.698 77.4217 104.832C77.6279 104.966 77.767 105.099 77.8388 105.231ZM76.7276 105.752C76.6478 105.606 76.3851 105.559 75.9395 105.613C75.4859 105.651 75.0104 105.806 74.513 106.078C74.0742 106.317 73.7603 106.508 73.5715 106.649C73.3826 106.79 73.2596 106.895 73.2024 106.964C73.3009 107.214 73.4307 107.504 73.5917 107.834C73.7528 108.164 73.9251 108.497 74.1088 108.833C74.3004 109.184 74.4953 109.524 74.6936 109.853C74.8986 110.159 75.0755 110.413 75.2246 110.617C75.3575 110.373 75.5397 110.046 75.771 109.635C76.009 109.201 76.2277 108.75 76.4271 108.28C76.6185 107.796 76.7547 107.332 76.8357 106.889C76.9234 106.424 76.8873 106.045 76.7276 105.752ZM87.371 105.269C87.4016 105.29 87.4328 105.33 87.4648 105.389C87.5127 105.476 87.5187 105.644 87.4829 105.891C87.4709 105.974 87.4277 106.121 87.3533 106.332C87.2789 106.544 87.1532 106.783 86.9764 107.051C86.7996 107.318 86.5562 107.603 86.2464 107.905C85.9512 108.199 85.5622 108.478 85.0794 108.741C84.7429 108.925 84.3738 109.031 83.9721 109.061C83.5625 109.075 83.1534 109.004 82.745 108.848C82.3286 108.676 81.9202 108.415 81.5198 108.064C81.1113 107.698 80.7434 107.215 80.416 106.616C80.1046 106.045 79.8863 105.471 79.7611 104.894C79.6359 104.317 79.5793 103.778 79.5911 103.278C79.6176 102.77 79.7099 102.33 79.8681 101.959C80.0263 101.588 80.237 101.33 80.5003 101.187C80.7344 101.059 80.9964 100.982 81.2864 100.957C81.583 100.909 81.8663 100.906 82.1364 100.949C82.421 100.983 82.6738 101.064 82.8946 101.19C83.1075 101.302 83.2658 101.452 83.3696 101.643C83.4894 101.862 83.5107 102.145 83.4337 102.491C83.3712 102.828 83.2569 103.176 83.0908 103.532C82.9166 103.874 82.7265 104.187 82.5204 104.47C82.3063 104.739 82.1188 104.917 81.9579 105.005C81.8701 105.053 81.7697 105.06 81.6566 105.027C81.5502 104.971 81.465 104.885 81.4012 104.768C81.2894 104.563 81.2893 104.354 81.401 104.141C81.5273 103.92 81.6762 103.706 81.8477 103.499C82.0113 103.276 82.1449 103.052 82.2486 102.824C82.3669 102.589 82.3622 102.354 82.2344 102.12C82.2185 102.091 82.142 102.037 82.0049 101.96C81.8679 101.883 81.6385 101.932 81.3166 102.108C81.1703 102.188 81.05 102.368 80.9556 102.647C80.8533 102.912 80.7942 103.238 80.7783 103.627C80.7545 104 80.7918 104.417 80.8904 104.876C80.981 105.32 81.15 105.769 81.3976 106.222C81.6052 106.603 81.8586 106.91 82.158 107.146C82.472 107.373 82.7985 107.537 83.1378 107.636C83.469 107.721 83.8128 107.743 84.1693 107.7C84.5258 107.657 84.8576 107.552 85.1648 107.384C85.3843 107.265 85.5944 107.093 85.7952 106.869C86.0026 106.623 86.1881 106.389 86.3517 106.167C86.5219 105.922 86.6635 105.712 86.7765 105.536C86.8961 105.338 86.9779 105.227 87.0218 105.203C87.0657 105.179 87.1215 105.177 87.1894 105.197C87.2719 105.209 87.3324 105.233 87.371 105.269ZM91.7043 97.2075C91.7602 97.3099 91.7643 97.4216 91.7164 97.5427C91.6606 97.6491 91.5861 97.7562 91.493 97.8639C91.3999 97.9717 91.3029 98.0722 91.2018 98.1653C91.0928 98.2438 91.0017 98.303 90.9285 98.343C90.7091 98.4627 90.5548 98.5279 90.4657 98.5386C90.3766 98.5493 90.31 98.5666 90.2662 98.5905C89.9004 98.7902 89.6238 98.9791 89.4363 99.1574C89.2488 99.3357 89.1251 99.5266 89.0653 99.7301C89.0202 99.9257 89.0315 100.138 89.0994 100.367C89.174 100.573 89.2871 100.815 89.4388 101.093C89.6943 101.561 89.9126 101.926 90.0935 102.188C90.2891 102.442 90.4495 102.649 90.5746 102.808C90.7143 102.96 90.8267 103.079 90.9118 103.165C91.0036 103.229 91.0735 103.305 91.1214 103.393C91.1853 103.51 91.1873 103.67 91.1275 103.874C91.0823 104.069 91.0086 104.195 90.9061 104.251C90.7306 104.347 90.4858 104.281 90.1719 104.053C89.8645 103.803 89.5439 103.494 89.2099 103.126C88.8826 102.735 88.5739 102.343 88.2838 101.951C87.9937 101.559 87.7888 101.253 87.669 101.033C87.5333 100.785 87.4275 100.539 87.3516 100.295C87.2677 100.037 87.2185 99.8078 87.2038 99.6069C87.1811 99.3914 87.1857 99.2086 87.2176 99.0582C87.2495 98.9079 87.3093 98.8088 87.3971 98.7609C87.4702 98.721 87.5447 98.7183 87.6205 98.7529C87.6884 98.7728 87.7569 98.8114 87.8261 98.8685C87.8873 98.9111 87.9485 98.9536 88.0097 98.9962C88.0775 99.0161 88.1407 99.0101 88.1992 98.9782C88.3309 98.9063 88.5071 98.7247 88.7278 98.4333C88.9485 98.142 89.271 97.8805 89.6953 97.6489C90.0903 97.4334 90.3908 97.2883 90.597 97.2137C90.8098 97.1166 91.0312 97.0527 91.2614 97.022C91.3132 97.0127 91.3844 97.0213 91.4748 97.0479C91.5719 97.0519 91.6484 97.1051 91.7043 97.2075ZM92.907 92.1364C92.923 92.1657 92.9037 92.2521 92.8492 92.3958C92.7947 92.5395 92.7223 92.7024 92.6319 92.8847C92.5481 93.0443 92.4531 93.2007 92.3467 93.3537C92.2403 93.5067 92.1433 93.6071 92.0555 93.655C91.997 93.687 91.9165 93.7309 91.8141 93.7868C91.7183 93.82 91.6073 93.8427 91.4809 93.8547C91.3692 93.8587 91.2568 93.8441 91.1437 93.8109C91.0227 93.763 90.9262 93.6733 90.8543 93.5416C90.7425 93.3368 90.7119 93.1067 90.7624 92.8513C90.8049 92.5813 90.9431 92.3824 91.1772 92.2546C91.2211 92.2307 91.3282 92.2007 91.4984 92.1647C91.6753 92.1062 91.8602 92.0622 92.053 92.0329C92.2459 92.0036 92.4208 91.9936 92.5778 92.0028C92.7494 92.0041 92.8591 92.0486 92.907 92.1364ZM98.1107 99.9483C98.1666 100.051 98.134 100.182 98.013 100.343C97.9066 100.496 97.8169 100.593 97.7437 100.633C97.5974 100.713 97.4139 100.689 97.193 100.563C96.9722 100.437 96.75 100.273 96.5265 100.072C96.303 99.8716 96.1021 99.6775 95.9238 99.49C95.7375 99.2879 95.6058 99.1509 95.5286 99.0791C95.4049 98.9567 95.2505 98.8131 95.0656 98.6482C94.8807 98.4833 94.6997 98.3258 94.5228 98.1755C94.3605 98.0173 94.2174 97.877 94.0937 97.7546C93.97 97.6323 93.9041 97.5638 93.8961 97.5492C93.7843 97.3444 93.7171 97.1342 93.6944 96.9187C93.6864 96.6953 93.7409 96.5516 93.8579 96.4877C93.9896 96.4159 94.1845 96.4424 94.4425 96.5674C94.7006 96.6924 94.9833 96.8798 95.2907 97.1298C95.6046 97.3572 95.9239 97.6291 96.2486 97.9456C96.5652 98.2475 96.8593 98.5427 97.1307 98.8312C97.3941 99.1052 97.6157 99.3545 97.7953 99.5793C97.9816 99.7814 98.0867 99.9044 98.1107 99.9483ZM105.372 95.4439C105.403 95.4651 105.434 95.505 105.466 95.5635C105.514 95.6513 105.52 95.8189 105.484 96.0663C105.472 96.1488 105.429 96.2958 105.354 96.5073C105.28 96.7188 105.154 96.9583 104.977 97.2257C104.801 97.4931 104.557 97.7778 104.247 98.0798C103.952 98.3739 103.563 98.6527 103.08 98.9162C102.744 99.0998 102.375 99.2063 101.973 99.2357C101.564 99.2504 101.155 99.1794 100.746 99.0225C100.33 98.851 99.9213 98.5898 99.5208 98.2387C99.1124 97.8731 98.7445 97.3903 98.4171 96.7905C98.1057 96.22 97.8874 95.6461 97.7622 95.0688C97.637 94.4916 97.5803 93.9529 97.5922 93.4527C97.6186 92.9446 97.711 92.505 97.8691 92.1338C98.0273 91.7627 98.2381 91.5052 98.5014 91.3615C98.7355 91.2337 98.9975 91.1572 99.2875 91.1318C99.5841 91.0839 99.8674 91.0811 100.137 91.1236C100.422 91.1581 100.675 91.2385 100.896 91.3648C101.109 91.4765 101.267 91.6274 101.371 91.8176C101.49 92.0371 101.512 92.3197 101.435 92.6656C101.372 93.0035 101.258 93.3507 101.092 93.7072C100.918 94.0491 100.728 94.3617 100.521 94.6451C100.307 94.9138 100.12 95.0921 99.959 95.1799C99.8712 95.2279 99.7708 95.2352 99.6577 95.202C99.5513 95.1461 99.4661 95.0597 99.4022 94.9427C99.2904 94.7379 99.2904 94.529 99.4021 94.3162C99.5284 94.0953 99.6773 93.8811 99.8488 93.6736C100.012 93.4514 100.146 93.2266 100.25 92.9991C100.368 92.7636 100.363 92.5289 100.236 92.2948C100.22 92.2655 100.143 92.2123 100.006 92.1352C99.869 92.0581 99.6396 92.1074 99.3177 92.2831C99.1714 92.3629 99.0511 92.5425 98.9567 92.8219C98.8544 93.0866 98.7953 93.4132 98.7794 93.8016C98.7556 94.1753 98.7929 94.5917 98.8915 95.0505C98.9821 95.4948 99.1511 95.9437 99.3986 96.3972C99.6062 96.7775 99.8597 97.0854 100.159 97.3208C100.473 97.5481 100.8 97.7117 101.139 97.8113C101.47 97.8964 101.814 97.9176 102.17 97.8749C102.527 97.8322 102.859 97.7271 103.166 97.5594C103.385 97.4396 103.595 97.268 103.796 97.0444C104.004 96.7983 104.189 96.5642 104.353 96.342C104.523 96.0972 104.665 95.887 104.778 95.7114C104.897 95.5132 104.979 95.4021 105.023 95.3781C105.067 95.3542 105.123 95.3521 105.19 95.3721C105.273 95.384 105.333 95.408 105.372 95.4439ZM113.29 90.6097C113.338 90.6975 113.356 90.8012 113.346 90.921C113.335 91.0407 113.306 91.1611 113.258 91.2821C113.225 91.3952 113.173 91.5089 113.102 91.6233C113.039 91.7151 112.97 91.781 112.897 91.8209C112.648 91.9567 112.298 92.0811 111.848 92.1943C111.403 92.2849 111 92.277 110.638 92.1707C110.254 92.0577 109.875 91.8849 109.501 91.6522C109.119 91.4049 108.628 91.0087 108.026 90.4635C108.217 91.195 108.374 91.9352 108.498 92.684C108.636 93.4249 108.615 94.1864 108.435 94.9686C108.421 95.0138 108.385 95.0524 108.327 95.0843C108.224 95.1402 108.087 95.1489 107.914 95.1104C107.741 95.0719 107.626 95.0014 107.571 94.899C107.515 94.7966 107.372 94.5705 107.143 94.2207C106.921 93.8483 106.672 93.4434 106.395 93.0058C106.11 92.5537 105.825 92.1015 105.541 91.6493C105.262 91.1745 105.04 90.7835 104.872 90.4763C104.792 90.33 104.696 90.1358 104.582 89.8938C104.461 89.6371 104.389 89.401 104.367 89.1855C104.365 89.1483 104.385 89.0618 104.424 88.9261C104.479 88.7825 104.565 88.6787 104.682 88.6148C104.784 88.5589 104.879 88.5928 104.965 88.7165C105.052 88.8402 105.139 88.9825 105.227 89.1434L107.119 92.6106C107.159 92.6837 107.222 92.7821 107.309 92.9058C107.41 93.0215 107.498 93.0967 107.574 93.1312C107.543 92.6923 107.466 92.2028 107.342 91.6628C107.225 91.1002 107.116 90.5708 107.017 90.0747C106.909 89.5639 106.841 89.1263 106.813 88.7619C106.777 88.3828 106.825 88.1573 106.956 88.0855C107.102 88.0056 107.235 87.971 107.355 87.9816C107.475 87.9922 107.612 88.0693 107.766 88.213C108.071 88.5973 108.337 88.9457 108.565 89.2582C108.784 89.5561 108.995 89.8208 109.197 90.0522C109.414 90.2756 109.645 90.4724 109.89 90.6426C110.141 90.7901 110.429 90.8991 110.752 90.9695C111.06 91.0479 111.363 91.0632 111.66 91.0152C111.971 90.9592 112.222 90.8794 112.412 90.7756C112.5 90.7277 112.587 90.6611 112.673 90.576C112.752 90.4762 112.813 90.4143 112.857 90.3904C112.915 90.3584 112.994 90.3817 113.094 90.4601C113.209 90.5306 113.274 90.5805 113.29 90.6097ZM120.034 85.248C120.114 85.3943 120.176 85.5599 120.22 85.7448C120.256 85.915 120.28 86.0633 120.292 86.1897C120.287 86.2495 120.232 86.479 120.127 86.8781C120.028 87.2545 119.872 87.6816 119.658 88.1591C119.459 88.6287 119.196 89.1043 118.87 89.5859C118.551 90.0449 118.187 90.3862 117.777 90.6098C117.529 90.7455 117.249 90.8414 116.937 90.8973C116.641 90.9453 116.331 90.934 116.008 90.8636C115.676 90.7786 115.358 90.6297 115.052 90.417C114.76 90.1962 114.499 89.8737 114.267 89.4495C113.884 88.7473 113.654 88.047 113.577 87.3487C113.499 86.6504 113.486 86.0691 113.536 85.6049C113.551 85.3881 113.595 85.1553 113.668 84.9065C113.747 84.6352 113.832 84.3897 113.921 84.1702C114.002 83.9361 114.084 83.7392 114.168 83.5796C114.266 83.412 114.345 83.3122 114.403 83.2802C114.535 83.2084 114.672 83.1811 114.814 83.1983C114.971 83.2076 115.07 83.2488 115.11 83.322C115.174 83.439 115.193 83.5614 115.168 83.6891C115.149 83.7941 115.109 83.9298 115.048 84.0961C114.979 84.2478 114.908 84.448 114.835 84.6967C114.754 84.9309 114.693 85.2202 114.653 85.5647C114.566 86.2391 114.574 86.8802 114.678 87.4881C114.788 88.0733 114.948 88.5561 115.155 88.9365C115.363 89.3168 115.669 89.5482 116.075 89.6306C116.487 89.6903 116.847 89.6363 117.155 89.4687C117.71 89.1652 118.133 88.7734 118.421 88.2931C118.724 87.8049 118.946 87.3233 119.085 86.8484C119.225 86.3735 119.322 85.9598 119.376 85.6073C119.431 85.2548 119.502 85.0546 119.589 85.0067C119.75 84.9189 119.899 84.9993 120.034 85.248ZM128.816 82.6479C128.847 82.6692 128.878 82.7091 128.91 82.7676C128.958 82.8554 128.964 83.023 128.928 83.2704C128.916 83.3529 128.873 83.4999 128.799 83.7114C128.724 83.9229 128.599 84.1623 128.422 84.4297C128.245 84.6972 128.002 84.9819 127.692 85.2839C127.397 85.5779 127.008 85.8567 126.525 86.1202C126.188 86.3039 125.819 86.4104 125.417 86.4397C125.008 86.4545 124.599 86.3834 124.19 86.2266C123.774 86.0551 123.366 85.7938 122.965 85.4428C122.557 85.0771 122.189 84.5944 121.861 83.9946C121.55 83.424 121.332 82.8501 121.206 82.2729C121.081 81.6956 121.025 81.1569 121.036 80.6568C121.063 80.1487 121.155 79.709 121.313 79.3379C121.472 78.9667 121.682 78.7093 121.946 78.5655C122.18 78.4378 122.442 78.3612 122.732 78.3359C123.028 78.2879 123.312 78.2852 123.582 78.3277C123.866 78.3622 124.119 78.4426 124.34 78.5689C124.553 78.6806 124.711 78.8315 124.815 79.0217C124.935 79.2411 124.956 79.5238 124.879 79.8696C124.817 80.2075 124.702 80.5547 124.536 80.9112C124.362 81.2531 124.172 81.5658 123.966 81.8491C123.752 82.1179 123.564 82.2962 123.403 82.384C123.315 82.4319 123.215 82.4392 123.102 82.406C122.996 82.3502 122.91 82.2638 122.846 82.1467C122.735 81.9419 122.735 81.7331 122.846 81.5202C122.973 81.2994 123.122 81.0852 123.293 80.8776C123.457 80.6555 123.59 80.4306 123.694 80.2031C123.812 79.9677 123.808 79.7329 123.68 79.4988C123.664 79.4696 123.587 79.4164 123.45 79.3393C123.313 79.2622 123.084 79.3114 122.762 79.4871C122.616 79.567 122.495 79.7466 122.401 80.0259C122.299 80.2906 122.24 80.6172 122.224 81.0056C122.2 81.3794 122.237 81.7957 122.336 82.2546C122.426 82.6988 122.595 83.1477 122.843 83.6012C123.05 83.9816 123.304 84.2895 123.603 84.5248C123.917 84.7522 124.244 84.9157 124.583 85.0154C124.914 85.1004 125.258 85.1216 125.615 85.0789C125.971 85.0363 126.303 84.9311 126.61 84.7634C126.83 84.6437 127.04 84.472 127.241 84.2485C127.448 84.0024 127.633 83.7682 127.797 83.546C127.967 83.3012 128.109 83.091 128.222 82.9154C128.341 82.7172 128.423 82.6061 128.467 82.5822C128.511 82.5582 128.567 82.5562 128.635 82.5761C128.717 82.5881 128.778 82.612 128.816 82.6479Z" fill="#FFAACE"/>
</svg>
